<svg fill="none" height="24" viewBox="0 0 24 24" width="24" xmlns="http://www.w3.org/2000/svg"><g clip-rule="evenodd" fill="#000" fill-rule="evenodd"><path d="m2.25 6c0-.41421.33579-.75.75-.75h3.5c.41421 0 .75.33579.75.75s-.33579.75-.75.75h-3.5c-.41421 0-.75-.33579-.75-.75zm8.5 0c0-.41421.3358-.75.75-.75h9.5c.4142 0 .75.33579.75.75s-.3358.75-.75.75h-9.5c-.4142 0-.75-.33579-.75-.75z"/><path d="m9 4.25c-.9665 0-1.75.7835-1.75 1.75s.7835 1.75 1.75 1.75 1.75-.7835 1.75-1.75-.7835-1.75-1.75-1.75zm-3.25 1.75c0-1.79493 1.45507-3.25 3.25-3.25 1.7949 0 3.25 1.45507 3.25 3.25s-1.4551 3.25-3.25 3.25c-1.79493 0-3.25-1.45507-3.25-3.25z"/><path d="m21.75 12c0-.4142-.3358-.75-.75-.75h-2c-.4142 0-.75.3358-.75.75s.3358.75.75.75h2c.4142 0 .75-.3358.75-.75zm-7 0c0-.4142-.3358-.75-.75-.75h-5c-.41421 0-.75.3358-.75.75s.33579.75.75.75h5c.4142 0 .75-.3358.75-.75zm-9 0c0-.4142-.33579-.75-.75-.75h-2c-.41421 0-.75.3358-.75.75s.33579.75.75.75h2c.41421 0 .75-.3358.75-.75z"/><path d="m16.5 10.25c.9665 0 1.75.7835 1.75 1.75s-.7835 1.75-1.75 1.75-1.75-.7835-1.75-1.75.7835-1.75 1.75-1.75zm3.25 1.75c0-1.7949-1.4551-3.25-3.25-3.25s-3.25 1.4551-3.25 3.25 1.4551 3.25 3.25 3.25 3.25-1.4551 3.25-3.25z"/><path d="m2.25 18c0-.4142.33579-.75.75-.75h5c.41421 0 .75.3358.75.75s-.33579.75-.75.75h-5c-.41421 0-.75-.3358-.75-.75zm10 0c0-.4142.3358-.75.75-.75h8c.4142 0 .75.3358.75.75s-.3358.75-.75.75h-8c-.4142 0-.75-.3358-.75-.75z"/><path d="m10.5 16.25c-.9665 0-1.75.7835-1.75 1.75s.7835 1.75 1.75 1.75 1.75-.7835 1.75-1.75-.7835-1.75-1.75-1.75zm-3.25 1.75c0-1.7949 1.45507-3.25 3.25-3.25 1.7949 0 3.25 1.4551 3.25 3.25s-1.4551 3.25-3.25 3.25c-1.79493 0-3.25-1.4551-3.25-3.25z"/></g></svg>