<svg id="Layer_1" viewBox="0 0 24 24" xmlns="http://www.w3.org/2000/svg" data-name="Layer 1"><g fill="rgb(0,0,0)"><path d="m6.3 3.9c.54-.4 1.2-.9 1.2-1.9 0-.28-.22-.5-.5-.5s-.5.22-.5.5c0 .48-.29.71-.8 1.1-.53.4-1.2.9-1.2 1.9s.67 1.5 1.2 1.9c.51.38.8.62.8 1.1s-.29.72-.8 1.1c-.54.4-1.2.9-1.2 1.9 0 .28.22.5.5.5s.5-.22.5-.5c0-.48.29-.72.8-1.1.54-.4 1.2-.9 1.2-1.9s-.67-1.5-1.2-1.9c-.51-.38-.8-.62-.8-1.1s.29-.72.8-1.1z"/><path d="m12.3 3.9c.54-.4 1.2-.9 1.2-1.9 0-.28-.22-.5-.5-.5s-.5.22-.5.5c0 .48-.29.71-.8 1.1-.53.4-1.2.9-1.2 1.9s.67 1.5 1.2 1.9c.51.38.8.62.8 1.1s-.29.72-.8 1.1c-.54.4-1.2.9-1.2 1.9 0 .28.22.5.5.5s.5-.22.5-.5c0-.48.29-.72.8-1.1.54-.4 1.2-.9 1.2-1.9s-.67-1.5-1.2-1.9c-.51-.38-.8-.62-.8-1.1s.29-.72.8-1.1z"/><path d="m18.3 3.9c.54-.4 1.2-.9 1.2-1.9 0-.28-.22-.5-.5-.5s-.5.22-.5.5c0 .48-.29.71-.8 1.1-.53.4-1.2.9-1.2 1.9s.67 1.5 1.2 1.9c.51.38.8.62.8 1.1s-.29.72-.8 1.1c-.54.4-1.2.9-1.2 1.9 0 .28.22.5.5.5s.5-.22.5-.5c0-.48.29-.72.8-1.1.54-.4 1.2-.9 1.2-1.9s-.67-1.5-1.2-1.9c-.51-.38-.8-.62-.8-1.1s.29-.72.8-1.1z"/><path d="m22 13.5c-1.07 0-1.61.65-2.05 1.18-.44.52-.71.82-1.29.82s-.85-.3-1.29-.82c-.44-.53-.98-1.18-2.05-1.18s-1.61.65-2.05 1.18c-.44.52-.71.82-1.28.82s-.85-.3-1.28-.82c-.44-.53-.98-1.18-2.05-1.18s-1.61.65-2.05 1.18c-.44.52-.71.82-1.28.82s-.84-.3-1.28-.82c-.44-.53-.98-1.18-2.05-1.18-.28 0-.5.22-.5.5s.22.5.5.5c.57 0 .84.3 1.28.82.44.53.98 1.18 2.05 1.18s1.61-.65 2.05-1.18c.44-.52.71-.82 1.28-.82s.85.3 1.28.82c.44.53.98 1.18 2.05 1.18s1.61-.65 2.05-1.18c.44-.52.71-.82 1.28-.82s.85.3 1.29.82c.44.53.98 1.18 2.05 1.18s1.61-.65 2.05-1.18c.44-.52.71-.82 1.29-.82.28 0 .5-.22.5-.5s-.22-.5-.5-.5z"/><path d="m21 18.5h-18c-.83 0-1.5.67-1.5 1.5v1c0 .83.67 1.5 1.5 1.5h18c.83 0 1.5-.67 1.5-1.5v-1c0-.83-.67-1.5-1.5-1.5zm.5 2.5c0 .28-.22.5-.5.5h-18c-.28 0-.5-.22-.5-.5v-1c0-.28.22-.5.5-.5h18c.28 0 .5.22.5.5z"/></g></svg>