<svg id="Layer_1" height="512" viewBox="0 0 64 64" width="512" xmlns="http://www.w3.org/2000/svg" data-name="Layer 1"><path d="m36 39.47v-32.47a7 7 0 1 0 -14 0v32.47a13.26 13.26 0 1 0 14 0zm-7 22.59a11.32 11.32 0 0 1 -5.53-21.19 1 1 0 0 0 .53-.87v-33a5 5 0 1 1 10 0v33a1 1 0 0 0 .49.84 11.32 11.32 0 0 1 -5.49 21.22z"/><path d="m30 44.89v-30.25a1 1 0 1 0 -1.94 0v30.25a5.94 5.94 0 1 0 1.94 0zm-1 9.85a4 4 0 1 1 4-4 4 4 0 0 1 -4 4z"/><path d="m40.32 9.64h7a1 1 0 0 0 0-1.94h-7a1 1 0 1 0 0 1.94z"/><path d="m40.32 16.06h4.06a1 1 0 0 0 0-1.94h-4.06a1 1 0 0 0 0 1.94z"/><path d="m47.29 20.55h-7a1 1 0 1 0 0 1.93h7a1 1 0 1 0 0-1.93z"/><path d="m40.32 28.91h4.06a1 1 0 0 0 0-1.94h-4.06a1 1 0 0 0 0 1.94z"/><path d="m47.29 33.39h-7a1 1 0 0 0 0 1.94h7a1 1 0 1 0 0-1.94z"/></svg>