<svg id="Capa_1" enable-background="new 0 0 512 512" height="512" viewBox="0 0 512 512" width="512" xmlns="http://www.w3.org/2000/svg"><g><g><path d="m153.221 184.577c19.326 4.833 44.858 7.496 71.895 7.496 27.024 0 52.549-2.662 71.871-7.496 24.458-6.118 36.347-14.976 36.347-27.081 0-12.092-11.89-20.943-36.349-27.057-19.327-4.831-44.85-7.491-71.869-7.491-27.03 0-52.562 2.661-71.893 7.491-24.462 6.113-36.353 14.963-36.353 27.057 0 12.105 11.89 20.963 36.351 27.081zm10.048-35.938c17.113-3.67 39.078-5.691 61.847-5.691 22.759 0 44.715 2.021 61.824 5.691 14.725 3.159 22.072 6.719 25.102 8.864-3.025 2.146-10.368 5.711-25.093 8.873-17.105 3.673-39.065 5.696-61.834 5.696-22.779 0-44.748-2.023-61.857-5.696-14.727-3.162-22.071-6.727-25.098-8.873 3.033-2.145 10.381-5.705 25.109-8.864z"/><path d="m511.621 299.939c-8.759-30.997-41.987-53.503-69.154-61.298-14.206-4.075-27.122-4.542-37.871-1.528v-19.488c29.607-16.814 45.608-37.674 45.608-60.13 0-27.828-24.579-53.21-69.209-71.469-41.8-17.101-97.159-26.518-155.879-26.518-58.733 0-114.101 9.418-155.904 26.518-44.632 18.259-69.212 43.64-69.212 71.47 0 22.464 16.011 43.33 45.636 60.146v76.727c-29.882 16.917-45.636 37.623-45.636 60.135 0 27.84 24.58 53.226 69.213 71.48 41.796 17.094 97.164 26.508 155.904 26.508 58.728 0 114.087-9.414 155.879-26.508 44.63-18.255 69.209-43.64 69.209-71.48 0-22.505-15.744-43.211-45.608-60.134v-35.729c7.473-4.29 18.961-4.619 32.356-.776 26.055 7.475 49.882 27.901 55.423 47.511 1.245 4.406 5.255 7.283 9.618 7.283.899 0 1.815-.123 2.724-.379 5.314-1.5 8.404-7.026 6.903-12.341zm-445.985 30.134c31.44 17.594 91.184 23.268 113.866 24.826.233.016.465.024.695.024 5.211 0 9.604-4.039 9.967-9.315.378-5.51-3.781-10.284-9.291-10.662-34.324-2.358-65.154-7.512-86.81-14.513-23.602-7.63-28.427-14.866-28.427-16.386v-24.377c9.234 5.161 21.644 9.701 37.204 13.591 32.773 8.195 76.199 12.707 122.276 12.707 46.066 0 89.487-4.513 122.264-12.707 15.565-3.891 27.979-8.432 37.216-13.594v24.381c0 1.52-4.827 8.755-28.44 16.386-21.663 7-52.499 12.155-86.826 14.513-5.51.378-9.669 5.152-9.291 10.662.362 5.277 4.756 9.315 9.967 9.315.229 0 .462-.008.695-.024 22.687-1.559 82.449-7.234 113.895-24.83v24.435c0 2.06-7.14 11.536-42.066 20.268-31.237 7.809-72.935 12.11-117.413 12.11-44.489 0-86.191-4.301-117.424-12.11-34.918-8.731-42.055-18.208-42.055-20.268v-24.432zm-45.636-172.577c0-18.893 20.697-38.195 56.785-52.958 39.456-16.141 92.134-25.03 148.331-25.03 56.184 0 108.854 8.889 148.306 25.03 36.086 14.763 56.782 34.065 56.782 52.958 0 15.801-14.467 31.885-40.286 45.363-.047.025-.094.049-.141.074-5.032 2.621-10.486 5.144-16.355 7.546-39.449 16.142-92.118 25.033-148.306 25.033-56.2 0-108.878-8.89-148.33-25.033-5.792-2.37-11.183-4.858-16.16-7.442-.197-.114-.399-.219-.604-.319-25.652-13.449-40.022-29.475-40.022-45.222zm49.212 71.493c41.8 17.103 97.167 26.522 155.905 26.522 58.724 0 114.083-9.419 155.88-26.522 1.217-.498 2.413-1.004 3.6-1.512v26.113c0 2.06-7.14 11.536-42.066 20.268-31.236 7.81-72.935 12.11-117.413 12.11-44.489 0-86.191-4.301-117.424-12.11-34.918-8.73-42.055-18.208-42.055-20.268v-26.103c1.177.506 2.364 1.008 3.573 1.502zm360.992 125.515c0 18.903-20.696 38.209-56.781 52.969-39.445 16.134-92.115 25.019-148.307 25.019-56.205 0-108.883-8.885-148.332-25.019-36.087-14.759-56.784-34.066-56.784-52.969 0-12.419 8.988-25.106 25.637-36.587v36.587c0 16.832 19.246 30.18 57.204 39.67 32.773 8.195 76.199 12.707 122.276 12.707 46.066 0 89.487-4.513 122.264-12.707 37.966-9.491 57.216-22.838 57.216-39.67v-36.577c16.629 11.481 25.607 24.165 25.607 36.577z"/><path d="m225.116 356.425h.028c5.522 0 9.986-4.477 9.986-10s-4.492-10-10.015-10-10 4.477-10 10c.001 5.523 4.479 10 10.001 10z"/></g></g></svg>