<svg id="Capa_1" enable-background="new 0 0 512 512" height="512" viewBox="0 0 512 512" width="512" xmlns="http://www.w3.org/2000/svg"><g><g><path d="m422.995 217.87c4.143 0 7.5-3.357 7.5-7.5v-192.87c0-9.649-7.851-17.5-17.5-17.5h-313.99c-9.649 0-17.5 7.851-17.5 17.5v477c0 9.649 7.851 17.5 17.5 17.5h313.99c9.649 0 17.5-7.851 17.5-17.5v-248.203c0-4.143-3.357-7.5-7.5-7.5s-7.5 3.357-7.5 7.5v52.811h-16.639v-117.615h16.639v28.877c0 4.143 3.358 7.5 7.5 7.5zm-294.851-144.77h33.028c4.143 0 7.5-3.357 7.5-7.5s-3.357-7.5-7.5-7.5h-33.028v-43.1h255.713v43.1h-186.759c-4.143 0-7.5 3.357-7.5 7.5s3.357 7.5 7.5 7.5h186.759v22.158h-255.713zm-29.139-58.1h14.139v151.493h-16.639v-148.993c0-1.379 1.121-2.5 2.5-2.5zm-2.5 447v-15.278h16.639v15.278zm0-280.507h16.639v117.614h-16.639zm316.49 315.507h-313.99c-1.379 0-2.5-1.121-2.5-2.5v-17.5h318.99v17.5c0 1.379-1.121 2.5-2.5 2.5zm2.5-35h-16.639v-15.278h16.639zm0-147.893v117.614h-16.639v-117.614zm-31.639-15h-3.586c-4.143 0-7.5 3.357-7.5 7.5s3.357 7.5 7.5 7.5h3.586v117.614h-3.586c-4.143 0-7.5 3.357-7.5 7.5s3.357 7.5 7.5 7.5h3.586v15.279h-255.712v-15.278h3.586c4.143 0 7.5-3.357 7.5-7.5s-3.357-7.5-7.5-7.5h-3.586v-53.092c0-4.143-3.357-7.5-7.5-7.5s-7.5 3.357-7.5 7.5v53.092h-16.639v-117.615h16.639v28.596c0 4.143 3.357 7.5 7.5 7.5s7.5-3.357 7.5-7.5v-28.596h3.586c4.143 0 7.5-3.357 7.5-7.5s-3.357-7.5-7.5-7.5h-3.586v-117.614h3.586c4.143 0 7.5-3.357 7.5-7.5s-3.357-7.5-7.5-7.5h-3.586v-56.235h255.713v56.235h-3.586c-4.143 0-7.5 3.357-7.5 7.5s3.357 7.5 7.5 7.5h3.586v117.614zm15-132.614v-151.493h14.139c1.379 0 2.5 1.121 2.5 2.5v148.993z"/><path d="m256 129.22c-17.53 0-31.793 14.263-31.793 31.794 0 17.53 14.263 31.793 31.793 31.793s31.793-14.263 31.793-31.793c0-17.532-14.263-31.794-31.793-31.794zm0 48.587c-9.26 0-16.793-7.533-16.793-16.793s7.533-16.794 16.793-16.794 16.793 7.534 16.793 16.794-7.533 16.793-16.793 16.793z"/><path d="m201.313 419.229c-1.407-1.406-3.314-2.196-5.304-2.196s-3.897.79-5.304 2.197l-10.465 10.466c-2.929 2.929-2.929 7.678.001 10.606 1.464 1.464 3.384 2.196 5.303 2.196s3.839-.732 5.304-2.197l5.161-5.162 5.162 5.163c2.93 2.928 7.678 2.928 10.607 0 2.929-2.93 2.929-7.678 0-10.607z"/><path d="m261.304 419.23c-1.406-1.407-3.314-2.197-5.304-2.197s-3.897.79-5.304 2.197l-10.465 10.466c-2.929 2.929-2.929 7.678.001 10.606 2.928 2.928 7.677 2.929 10.606-.001l5.161-5.161 5.161 5.161c1.465 1.465 3.384 2.197 5.304 2.197 1.919 0 3.839-.732 5.303-2.196 2.93-2.929 2.93-7.678.001-10.606z"/><path d="m321.295 419.23c-1.406-1.407-3.314-2.197-5.304-2.197s-3.896.79-5.304 2.196l-10.466 10.466c-2.929 2.93-2.929 7.678 0 10.607 2.93 2.928 7.678 2.928 10.607 0l5.162-5.163 5.161 5.162c1.465 1.465 3.384 2.197 5.304 2.197 1.919 0 3.839-.732 5.303-2.196 2.93-2.929 2.93-7.678.001-10.606z"/><path d="m213.252 44.05h85.496c4.143 0 7.5-3.357 7.5-7.5s-3.357-7.5-7.5-7.5h-85.496c-4.143 0-7.5 3.357-7.5 7.5s3.357 7.5 7.5 7.5z"/></g></g></svg>