<svg viewBox="0 0 64 64" xmlns="http://www.w3.org/2000/svg"><g id="Front_Heater" data-name="Front Heater"><path d="m33.14 29h2.86l-4-7-4 7h3l1.5 3.7a8.38 8.38 0 0 1 -.92 8l-.67.82a10.43 10.43 0 0 0 -.29 11.74 1 1 0 0 0 .82.42 1 1 0 0 0 .58-.19 1 1 0 0 0 .23-1.39 8.4 8.4 0 0 1 .21-9.32l.67-.82a10.32 10.32 0 0 0 1.22-10z"/><path d="m23.22 29h2.78l-4-7-4 7h3.06l1.5 3.7a8.35 8.35 0 0 1 -.92 8l-.67.82a10.43 10.43 0 0 0 -.29 11.74 1 1 0 0 0 .82.42 1 1 0 0 0 .58-.19 1 1 0 0 0 .24-1.39 8.4 8.4 0 0 1 .2-9.32l.67-.82a10.32 10.32 0 0 0 1.22-10z"/><path d="m57.88 20.09a3 3 0 0 0 -1.49-1.84l-7.73-4.1a35.48 35.48 0 0 0 -33.32 0l-7.72 4.1a3 3 0 0 0 -1.22 4.2l9.72 17a3 3 0 0 0 2.6 1.55 3 3 0 0 0 1.39-.34 1 1 0 0 0 .42-1.35 1 1 0 0 0 -1.34-.42 1 1 0 0 1 -1.33-.39l-9.72-17a1 1 0 0 1 -.1-.81 1 1 0 0 1 .52-.69l7.72-4.1a33.46 33.46 0 0 1 31.44 0l7.73 4.1a1 1 0 0 1 .51.63 1 1 0 0 1 -.1.81l-9.72 17a1 1 0 0 1 -1.33.39l-.2-.11a10.82 10.82 0 0 0 -.36-6.72l-1.19-3h2.94l-4-7-4 7h2.9l1.5 3.7a8.38 8.38 0 0 1 -.93 8l-.66.82a10.43 10.43 0 0 0 -.29 11.74 1 1 0 0 0 .82.42 1 1 0 0 0 .58-.19 1 1 0 0 0 .23-1.39 8.4 8.4 0 0 1 .21-9.32l.64-.78a8.27 8.27 0 0 0 .84-1.3 3 3 0 0 0 4-1.17l9.72-17a3 3 0 0 0 .32-2.44z"/></g></svg>