<?xml version='1.0' encoding='utf-8'?>
<!-- Generator: imaengine 6.0   -->
<svg xmlns:xlink="http://www.w3.org/1999/xlink" xmlns="http://www.w3.org/2000/svg" viewBox="0,0,2552,2552" style="enable-background:new 0 0 2552 2552;" version="1.1">
<defs/>
<g id="layer0">
<path d="M1277.75,2532.5L1373.62,2532.5L1376.89,2529.75L1380.15,2527L1404.95,2527C1426.81,2527 1430.57,2527.35 1431.78,2525.89C1434.71,2522.36 1438.5,2521.85 1454.66,2521.85C1470.19,2521.85 1470.93,2521.66 1474.84,2518.95C1478.6,2516.34 1479.08,2516.32 1492.6,2515.85C1506.71,2515.36 1507.52,2515 1509.66,2512.28C1511.81,2509.53 1511.19,2509.85 1523.77,2509.85C1535.9,2509.85 1537.03,2509.59 1540.83,2506.96C1544.34,2504.53 1545.51,2504.31 1554.51,2503.86C1563.75,2503.4 1565.47,2502.9 1568.44,2500.4C1571.48,2497.83 1571.77,2497.85 1580.41,2497.85C1589.44,2497.85 1590.37,2497.49 1592.98,2494.57C1595.45,2491.79 1595.52,2491.85 1601.85,2491.85C1607.41,2491.85 1609.66,2491.2 1611.13,2489.58C1613.49,2486.97 1618.06,2485.86 1625.53,2485.86C1630.97,2485.85 1632.45,2485.27 1634.83,2482.56C1637.23,2479.82 1637.36,2479.85 1643.19,2479.85C1649.01,2479.85 1650.42,2479.3 1652.83,2476.56C1655.26,2473.79 1655.33,2473.85 1661.52,2473.85C1667.2,2473.85 1669.21,2473.27 1671.73,2471.15C1674.08,2469.18 1675.26,2468.85 1679.43,2468.85C1683.63,2468.85 1686.07,2468.1 1689.58,2465.72C1692.77,2463.56 1694.7,2462.88 1697.84,2462.87C1701.4,2462.85 1703.29,2462.02 1705.45,2459.56C1707.86,2456.82 1707.99,2456.85 1713.81,2456.85C1719.64,2456.85 1721.04,2456.3 1723.45,2453.56C1725.47,2451.26 1726.29,2450.85 1729.09,2450.85C1731.62,2450.85 1734.4,2449.76 1737.03,2447.67C1740.08,2445.24 1741.23,2444.85 1745.23,2444.85C1749.48,2444.85 1751.19,2444.14 1753.45,2441.56C1755.39,2439.35 1756.33,2438.85 1758.78,2438.85C1761.16,2438.85 1763.5,2437.76 1765.43,2435.71C1767.61,2433.38 1768.69,2433 1773.47,2432.53C1777.92,2432.1 1780.5,2431.11 1782.53,2429.17C1784.41,2427.37 1785.7,2426.85 1788.3,2426.85C1791.13,2426.85 1793.24,2425.87 1795.29,2423.57C1797.25,2421.37 1798.22,2420.85 1800.66,2420.85C1803.09,2420.85 1805.34,2419.76 1807.29,2417.57C1809.2,2415.43 1810.24,2414.85 1812.5,2414.85C1814.76,2414.85 1817.07,2413.71 1818.98,2411.57C1820.93,2409.37 1821.91,2408.85 1824.34,2408.85C1826.78,2408.85 1829.02,2407.76 1830.98,2405.57C1832.93,2403.37 1833.91,2402.85 1836.34,2402.85C1838.78,2402.85 1841.02,2401.76 1842.98,2399.57C1844.93,2397.37 1845.91,2396.85 1848.34,2396.85C1850.78,2396.85 1853.02,2395.76 1854.98,2393.57C1856.93,2391.37 1857.91,2390.85 1860.34,2390.85C1862.78,2390.85 1865.02,2389.76 1866.98,2387.57C1868.97,2385.32 1869.89,2384.85 1872.48,2384.85C1875.17,2384.85 1877.12,2383.83 1878.84,2381.51C1880.62,2379.1 1881.12,2378.85 1884.12,2378.85C1887.14,2378.85 1888.97,2377.91 1890.69,2375.49C1891.87,2373.84 1892.71,2372.85 1893.41,2372.85C1894.12,2372.85 1896.14,2371.67 1897.14,2370.56C1898.14,2369.46 1900.32,2368.27 1902.46,2367.63C1904.69,2366.97 1907.67,2364.93 1908.82,2363.32C1910.43,2361.05 1910.9,2360.85 1914,2360.85C1917.15,2360.85 1918.95,2359.94 1920.69,2357.49C1922.2,2355.37 1922.96,2354.85 1924.97,2354.85C1927.84,2354.85 1932.36,2351.87 1938.14,2345.84C1940.44,2343.44 1941.52,2342.85 1943.98,2342.85C1946.77,2342.85 1948.89,2341.59 1953.62,2336.58C1958.51,2331.41 1959.17,2330.85 1962.28,2330.85C1964.84,2330.85 1967.02,2329.86 1968.09,2328.34C1969.68,2326.07 1974.51,2322.9 1980.36,2320.2C1982.28,2319.31 1986.45,2315.96 1989.3,2312.99C1993.47,2308.64 1994.5,2307.85 1997.1,2307.85C1999.75,2307.85 2001.97,2306.5 2006.66,2301.54C2011,2296.95 2012.76,2295.61 2015.52,2295.17C2018.34,2294.71 2021.47,2292.5 2028.02,2286.04C2033.52,2280.61 2037.26,2277.63 2039.53,2277C2043.54,2275.89 2044.54,2275.17 2056.92,2262.98C2063.06,2256.93 2066.82,2253.85 2068.88,2253.4C2072.72,2252.55 2074.52,2251.19 2090.58,2235.61C2105.2,2221.42 2107.54,2219.42 2111.58,2218.43C2115.84,2217.38 2135.85,2196.68 2135.85,2193.35C2135.85,2191.48 2133.21,2187.79 2126.6,2181.13C2121.65,2176.14 2117.85,2172.3 2117.85,2171.86C2117.85,2170.43 2110.82,2163.15 2109.44,2163.15C2107.64,2163.15 2094.73,2149.89 2092.79,2146.13C2091.95,2144.49 2089.39,2141.79 2087.47,2140.53C2082.59,2137.33 2075.85,2131.37 2075.85,2130.01C2075.85,2128.37 2065.4,2117.3 2062.22,2115.65C2058.92,2113.95 2053.36,2108.21 2050.71,2103.8C2049.63,2102.01 2046.99,2099.37 2045.2,2098.29C2040.98,2095.75 2016.83,2071.63 2014.22,2067.35C2013.12,2065.54 2010.53,2063.05 2008.88,2062.2C2005.41,2060.41 1987.44,2042.77 1985.65,2039.39C1983.16,2034.69 1976.73,2027.86 1973.61,2026.56C1970.21,2025.14 1949.85,2005.61 1949.85,2003.72C1949.85,2002.14 1943.88,1996.15 1942.31,1996.15C1940.62,1996.15 1929.25,1984.22 1926.07,1979.25C1924.74,1977.17 1921.92,1974.33 1920.15,1973.27C1915.9,1970.73 1903.69,1958.52 1901.55,1954.67C1900.62,1953 1898.06,1950.42 1896.25,1949.33C1892.37,1947.02 1884.85,1940.19 1884.85,1938.82C1884.85,1937.33 1874.2,1926.2 1871.22,1924.65C1868.03,1923.01 1862.67,1917.46 1859.46,1912.54C1858.2,1910.61 1855.51,1908.05 1853.87,1907.2C1849.94,1905.17 1826.24,1881.45 1824.2,1877.51C1823.33,1875.82 1820.9,1873.33 1819.23,1872.42C1815.7,1870.49 1794.85,1850.37 1794.85,1848.84C1794.85,1846.85 1785.13,1836.34 1782.33,1835.36C1779,1834.2 1761.04,1816.46 1758.8,1812.13C1757.95,1810.49 1755.38,1807.81 1753.46,1806.57C1751.53,1805.34 1748.75,1803.09 1747.1,1801.44C1742.66,1796.99 1737.63,1796.56 1733.91,1800.12C1697.01,1835.51 1619.3,1885.7 1562.66,1910.72C1557.98,1912.79 1551.78,1915.55 1548.87,1916.85C1545.97,1918.16 1543.72,1919.15 1543.46,1919.15C1543.19,1919.15 1540.72,1920.08 1538.39,1921.13C1515.98,1931.21 1465.14,1947.33 1432.81,1954.59C1428.69,1955.52 1422.61,1956.9 1419.31,1957.66C1407.3,1960.41 1372.02,1966.01 1356.41,1967.64C1347.61,1968.55 1336.79,1969.76 1332.39,1970.32C1321.87,1971.65 1244.79,1972.24 1230.07,1971.1C1106.94,1961.6 1000.59,1926.56 899.672,1862.25C875.732,1846.99 837.565,1818.76 824.155,1806.37L818,1801.78L818.851,1795.46C818.851,1789.96 817.989,1788.24 816.209,1787.67C813.312,1786.75 810.149,1789.68 810.149,1793.58C810.149,1797.15 809.881,1797.31 804.852,1800.29C803.084,1801.34 800.271,1804.18 798.949,1806.26C796.103,1810.74 772.112,1835.15 770.493,1835.15C768.916,1835.15 763.54,1840.82 762.745,1843.46C762.379,1844.67 760.608,1846.2 758.316,1847.46C755.852,1848.82 752.916,1851.7 751.609,1854.03C750.374,1856.23 748.2,1858.42 746.231,1859.43C744.294,1860.43 741.058,1863.42 739.416,1865.76C735.281,1871.65 730.542,1876.44 726.852,1878.41C725.141,1879.33 722.664,1881.83 721.781,1883.54C719.741,1887.48 702.076,1905.16 698.129,1907.2C696.49,1908.05 693.804,1910.61 692.555,1912.54C689.467,1917.29 683.4,1923.39 679.687,1925.45C678.005,1926.38 675.417,1928.93 674.322,1930.75C671.31,1935.76 666.156,1940.81 661.919,1942.88C659.5,1944.06 657.124,1946.43 656.058,1948.71C654.225,1952.62 643.084,1963.93 637.536,1967.55C635.611,1968.8 632.961,1971.71 632.009,1973.61C631.057,1975.5 629.107,1977.47 627.221,1978.44C623.573,1980.31 619.149,1985.42 619.149,1987.56C619.149,1988.27 617.694,1989.15 615.378,1990.43C613.061,1991.71 609.829,1994.61 608.561,1996.53C605.424,2001.29 583.881,2023.01 579.542,2025.79C575.316,2028.49 572.65,2031.51 571.752,2034.46C571.383,2035.67 569.608,2037.2 567.316,2038.46C564.852,2039.82 561.916,2042.7 560.609,2045.03C559.364,2047.25 557.199,2049.42 555.193,2050.45C553.236,2051.46 550.531,2053.81 549.588,2055.32C546.685,2059.95 540.264,2066.67 537.104,2068.35C535.452,2069.23 532.777,2071.76 531.537,2073.63C528.375,2078.4 510.333,2096.41 506.667,2098.45C504.996,2099.38 502.421,2101.94 501.333,2103.75C498.733,2108.1 492.534,2114.32 488.636,2116.48C486.927,2117.42 484.423,2119.92 483.477,2121.62C481.19,2125.73 474.319,2133.15 472.62,2133.15C470.381,2133.15 465.442,2137.59 464.766,2140.29C464.074,2143.05 450.587,2157.15 448.602,2157.15C446.936,2157.15 441.566,2162.74 440.745,2165.46C440.379,2166.67 438.608,2168.2 436.316,2169.46C433.852,2170.82 430.916,2173.7 429.609,2176.03C428.351,2178.27 426.197,2180.43 424.14,2181.48C419.979,2183.62 416.158,2189.27 416.153,2193.22C416.15,2195.75 422.738,2203.25 441.015,2220.61C442.17,2221.71 445.061,2223.13 446.927,2223.5C449.567,2224.03 453.139,2227.23 464.568,2238.77C472.645,2246.93 480.467,2253.85 481.213,2253.85C483.797,2253.85 491.952,2260.15 500.213,2268.26C506.486,2274.41 509.844,2276.8 512.591,2277.32C515.209,2277.81 517.528,2279.49 522.016,2283.94C530.864,2292.7 533.989,2294.85 536.735,2294.85C538.397,2294.85 540.515,2296.62 544.853,2301.09C549.962,2306.35 552.368,2307.85 554.894,2307.85C557.383,2307.85 558.6,2308.81 563.314,2313.6C566.564,2316.9 570.705,2319.85 571.777,2319.85C573.829,2319.85 579.156,2323.67 583.431,2328.02C585.165,2329.78 587.645,2330.85 589.951,2330.85C592.779,2330.85 593.628,2331.56 598.382,2336.58C603.115,2341.59 605.228,2342.85 608.016,2342.85C610.481,2342.85 611.562,2343.44 613.86,2345.84C619.638,2351.87 624.162,2354.85 627.035,2354.85C629.037,2354.85 629.795,2355.37 631.307,2357.49C632.921,2359.76 634.921,2360.85 637.348,2360.85C639.884,2360.85 641.342,2361.88 646.452,2366.61C651.511,2371.29 654.189,2372.82 656.677,2372.83C659.06,2372.85 659.707,2373.25 661.307,2375.49C663.029,2377.91 664.862,2378.85 667.88,2378.85C670.88,2378.85 671.38,2379.1 673.158,2381.51C674.88,2383.83 676.835,2384.85 679.522,2384.85C682.109,2384.85 683.026,2385.32 685.022,2387.57C686.98,2389.76 689.222,2390.85 691.658,2390.85C694.094,2390.85 695.065,2391.37 697.022,2393.57C698.98,2395.76 701.222,2396.85 703.658,2396.85C706.094,2396.85 707.065,2397.37 709.022,2399.57C710.98,2401.76 713.222,2402.85 715.658,2402.85C718.094,2402.85 719.065,2403.37 721.022,2405.57C722.98,2407.76 725.222,2408.85 727.658,2408.85C730.094,2408.85 731.065,2409.37 733.022,2411.57C734.929,2413.71 737.239,2414.85 739.5,2414.85C741.761,2414.85 742.8,2415.43 744.707,2417.57C746.664,2419.76 748.906,2420.85 751.342,2420.85C753.778,2420.85 754.75,2421.37 756.707,2423.57C758.828,2425.95 760.835,2426.85 763.985,2426.85C767.106,2426.85 767.589,2427 768.867,2428.95C770.094,2430.82 772.3,2431.96 776.041,2432.46C778.957,2432.84 782.351,2434.15 784.824,2435.82C787.447,2437.6 790.819,2438.82 793.023,2438.83C795.677,2438.85 796.567,2439.3 798.548,2441.56C800.619,2443.92 802.643,2444.85 805.678,2444.85C808.2,2444.85 810.403,2445.62 812.943,2447.34C815.192,2448.87 819.153,2450.33 821.814,2450.61C825.204,2450.97 826.587,2451.59 828.573,2453.71C831.003,2456.3 832.521,2456.85 838.36,2456.85C844.22,2456.85 844.329,2456.75 846.088,2459.17C847.684,2461.36 849.711,2462.31 854.732,2462.9C859.158,2463.42 861.254,2464.15 863.501,2466.04C866.183,2468.3 868.08,2468.85 873.962,2468.85C880.12,2468.85 880.215,2468.7 881.697,2470.97C883.169,2473.21 884.712,2473.85 890.613,2473.85C896.658,2473.85 896.75,2473.8 899.174,2476.56C901.581,2479.3 902.99,2479.85 908.813,2479.85C914.636,2479.85 914.766,2479.82 917.174,2482.56C919.571,2485.29 921.003,2485.85 926.688,2485.85C932.198,2485.85 932.77,2485.99 935.786,2488.64C939.017,2491.48 940.233,2491.85 948.374,2491.85C956.681,2491.85 956.444,2491.67 959.022,2494.57C961.626,2497.49 962.569,2497.85 971.528,2497.85C980.241,2497.85 980.394,2497.82 983.971,2500.67C987.662,2503.6 988.526,2503.85 999.565,2503.85C1010.69,2503.85 1010.22,2503.56 1012.34,2506.28C1014.42,2508.92 1015.56,2509.37 1026.47,2509.85C1036.57,2510.3 1037.69,2510.45 1040.66,2512.68C1043.77,2515.01 1045.45,2515.38 1059.06,2515.85C1072.95,2516.33 1073.38,2516.33 1077.16,2518.95C1081.07,2521.66 1081.83,2521.85 1097.12,2521.85L1112.63,2521L1115.45,2523.94L1118.27,2526.89L1146.88,2527.19L1175.5,2527.5L1178.69,2530L1181.88,2532.5L1277.75,2532.5ZM1305.8,2305.79C1299.39,2305.97 1296.85,2305.01 1295.94,2304.26C1294.84,2303.35 1294.85,2299.97 1294.85,2285.87L1294,2267.98L1290.1,2259.39C1287.49,2254.66 1283.81,2247.84 1282.06,2244.73C1280.32,2241.62 1277.93,2237.3 1276.75,2235.1C1275.57,2232.9 1273.17,2228.54 1271.42,2225.43C1266.86,2217.32 1264.43,2212.86 1263.32,2210.17C1262.21,2207.48 1262.19,2207.65 1263.13,2206.97C1265.33,2205.36 1279.58,2205.33 1283.02,2206.9C1284.41,2207.53 1285.99,2209.61 1287.21,2212.23C1290.1,2218.48 1293.06,2224.4 1294.8,2227.42C1295.59,2228.8 1297.31,2232.18 1298.66,2235.01C1301.32,2240.58 1303.03,2241.66 1307.16,2241.05C1309.35,2240.73 1311.03,2239.06 1313.12,2234.51C1314.54,2231.4 1316.09,2228.3 1316.65,2227.47C1317.69,2225.92 1319.92,2221.56 1324.19,2212.67C1325.57,2209.82 1327.21,2207.39 1328.3,2206.8C1331.31,2205.19 1345.72,2205.4 1348.06,2207.1C1349.13,2207.89 1349.26,2207.57 1348.33,2209.97C1347.41,2212.37 1345.17,2216.38 1340.82,2224.08C1338.95,2227.38 1336.23,2232.35 1334.79,2235.1C1333.34,2237.85 1330.65,2242.78 1328.78,2246.08C1326.91,2249.38 1324.56,2253.69 1323.56,2255.61C1322.56,2257.54 1320.65,2260.86 1319.28,2263.05C1316.9,2266.86 1316.63,2268.36 1316.15,2286.46L1316.5,2305.5L1305.8,2305.79ZM1227.07,2274.77C1207.82,2275.01 1207.06,2274.37 1205.94,2272.83C1204.36,2270.67 1204.25,2261.5 1205.79,2258.12L1206.32,2255L1227.63,2255C1247.43,2255 1248.25,2255.53 1249.18,2257.28C1251.1,2260.86 1251.52,2265.94 1250.07,2270.02L1249.33,2274.5L1227.07,2274.77ZM742.482,2186.97C731.617,2188.23 718.136,2178 715.711,2166.69C714.091,2159.14 715.089,2145.99 717.728,2140.36C723.876,2127.26 739.734,2110.09 752.057,2103.2C766.049,2095.38 783.818,2095 792.859,2102.47C801.922,2109.96 803.649,2113.83 803.649,2126.49C803.649,2137.07 803.612,2137.36 800.35,2143.61C792.399,2158.82 778.927,2173.12 765.679,2180.37C763.287,2181.68 760.15,2183.4 758.71,2184.19C757.269,2184.98 753.94,2185.78 750.915,2186.08C747.89,2186.38 744.088,2186.78 742.482,2186.97ZM676.036,2127.91C673.635,2126.99 672.634,2123.86 673.71,2121.03C674.513,2118.91 713.638,2079.21 723.397,2070.57C727.002,2067.38 727.825,2063.58 725.702,2061.55C723.579,2059.52 718.06,2057.78 709.979,2056.69C707.193,2056.32 705.121,2055.52 704.005,2054.29C702.185,2052.28 702.128,2053.41 704.93,2051C707.634,2048.67 707.634,2048.78 715.806,2049.36C737.075,2050.88 740.057,2051.6 744.585,2057.66C746.234,2059.87 746.488,2060.68 742.216,2066.06C737.944,2071.45 729.226,2080.31 712.831,2096.69C682.806,2126.69 680.125,2129.49 676.036,2127.91ZM661.646,2061.98C658.893,2062.27 657.895,2061.17 645.439,2048.74C638.031,2041.34 634.07,2037.11 632.373,2034.03C630.675,2030.96 631.211,2030.27 633.431,2028.26C634.903,2026.93 635.362,2026.81 638.069,2028.48C640.777,2030.16 644.569,2033.6 650.961,2039.79C659.609,2048.17 664.375,2053.55 665.964,2057.24C667.552,2060.93 666.465,2061.47 661.646,2061.98Z" fill-rule="evenodd" fill="#EFECEB"/>
<path d="M1306.5,2306.35L1316.5,2305.5L1317.85,2286.5C1318.33,2268.4 1318.34,2267.76 1320.72,2263.96C1322.1,2261.76 1324.07,2258.32 1325.07,2256.4C1326.07,2254.47 1328.4,2250.22 1330.26,2246.92C1332.13,2243.62 1334.85,2238.65 1336.29,2235.9C1337.74,2233.15 1340.43,2228.22 1342.3,2224.92C1346.65,2217.22 1348.99,2212.98 1349.92,2210.58C1350.85,2208.18 1350.13,2206.52 1349.06,2205.73C1346.73,2204.03 1330.51,2203.69 1327.5,2205.3C1326.41,2205.89 1324.03,2209.08 1322.66,2211.94C1318.39,2220.82 1316.28,2224.97 1315.23,2226.53C1314.68,2227.35 1312.99,2230.69 1311.57,2233.8C1309.49,2238.35 1309.1,2239.05 1306.91,2239.37C1302.78,2239.97 1302.85,2239.85 1300.2,2234.28C1298.84,2231.45 1297.06,2227.95 1296.27,2226.58C1294.53,2223.55 1291.64,2217.76 1288.75,2211.52C1287.54,2208.9 1285.12,2205.98 1283.72,2205.35C1280.29,2203.78 1264.33,2203.99 1262.13,2205.59C1261.19,2206.28 1260.64,2208.13 1261.75,2210.82C1262.85,2213.51 1265.38,2218.15 1269.94,2226.26C1271.68,2229.37 1274.07,2233.7 1275.25,2235.9C1276.43,2238.1 1278.83,2242.46 1280.58,2245.56C1282.33,2248.67 1286.07,2255.29 1288.68,2260.02L1294,2267.98L1293.15,2285.94C1293.15,2299.22 1293.87,2304.83 1294.79,2305.42C1295.48,2305.86 1301,2306.35 1306.5,2306.35Z" fill-rule="evenodd" fill="#363D3D"/>
<path d="M1227.5,2275.62C1252.19,2275.93 1252.26,2275.4 1252.26,2265C1252.26,2254.68 1252.18,2254.15 1227.63,2254.15L1206.32,2255L1204.31,2257.55C1202.86,2260.73 1202.95,2271.5 1204.36,2273.5C1205.23,2274.73 1209.89,2275.4 1227.5,2275.62Z" fill-rule="evenodd" fill="#363D3D"/>
<path d="M739.451,2188.63C742.971,2189.16 757.03,2187.05 759.658,2185.61C761.027,2184.86 764.104,2183.17 766.496,2181.86C779.744,2174.61 793.907,2159.61 801.858,2144.39C805.12,2138.15 805.351,2137.07 805.351,2126.49C805.351,2115.71 805.138,2114.89 801.93,2110.05C793.64,2097.53 782.597,2093.52 764.783,2096.69C748.624,2099.57 725.362,2120.09 716.188,2139.64C711.353,2149.94 712.724,2169.66 718.705,2176.65C724.862,2183.84 730.994,2187.38 739.451,2188.63ZM739.553,2174.25C734.514,2173.93 728.289,2168.37 727.571,2163.51C726.514,2156.38 728.65,2146.27 732.418,2140.59C736.816,2133.96 750.387,2120.09 756.36,2116.13C764.427,2110.76 764.986,2110.59 774.644,2110.47L783.951,2109.5L787.375,2113.77C791.64,2118.02 791.649,2118.04 791.582,2125.26C791.524,2131.57 791.188,2132.86 788.191,2138.21C780.643,2151.68 767.855,2164.36 754.933,2171.17C749.05,2174.27 746.846,2174.71 739.553,2174.25Z" fill-rule="evenodd" fill="#9A9796"/>
<path d="M745.551,2175.96C757.683,2175.23 779.663,2156.91 789.675,2139.04C792.672,2133.69 793.225,2131.59 793.284,2125.28C793.35,2118.06 792.87,2117.26 788.606,2113.01L783.951,2109.5L773.788,2109.62C764.13,2109.74 763.485,2109.35 755.419,2114.71C749.445,2118.68 735.399,2133.02 731.001,2139.65C728.101,2144.02 727.087,2146.9 726.326,2153.03C725.069,2163.15 725.884,2166.32 730.716,2171.34C734.949,2175.74 737.126,2176.47 745.551,2175.96Z" fill-rule="evenodd" fill="#EFECEB"/>
<path d="M357.295,2134.67C359.508,2134.93 361.738,2133.78 365.444,2130.02C368.007,2127.42 372.297,2123.69 375.099,2121.62C377.901,2119.55 381.06,2116.08 381.777,2114.35C382.583,2112.4 384.022,2111 386.239,2109.96C388.21,2109.03 391.095,2106.46 392.206,2104.64C394.424,2101.01 443.877,2050.85 445.261,2050.85C446.643,2050.85 457.827,2040.15 459.251,2037.4C460.782,2034.44 509.776,1984.85 511.188,1984.85C512.962,1984.85 524.634,1973.11 525.247,1970.66C525.585,1969.31 526.852,1968.05 528.655,1967.12C533.46,1964.64 553.044,1945.73 554.775,1941.91C556.141,1938.89 561.286,1934.04 567.918,1929.4C569.331,1928.41 571.559,1925.73 572.538,1923.82C573.52,1921.91 575.493,1919.95 577.393,1918.99C579.29,1918.04 582.197,1915.39 583.448,1913.46C586.407,1908.91 634.126,1860.97 637.407,1859.26C640.28,1857.76 650.851,1846.61 650.851,1845.15C650.851,1843.9 699.945,1794.85 701.197,1794.85C703.006,1794.85 714.957,1782.85 716.317,1779.6C717.068,1777.8 717.604,1776.85 718.467,1776.85C720.691,1776.85 744.025,1754.84 745.539,1751.27C747.432,1746.82 753.794,1741.43 757.898,1740.84C761.875,1740.28 764.174,1737.69 763.748,1736.34C763.322,1734.99 760.053,1733.18 755.894,1733.16C749.927,1733.14 745.843,1729.41 733.861,1714.09C729.081,1707.97 723.042,1700.27 720.443,1696.97C711.19,1685.23 697.454,1665.32 682.472,1641.94C669.935,1622.38 647.344,1579.25 637.807,1556.67C634.903,1549.79 631.196,1541.08 629.571,1537.31C618.456,1511.52 603.876,1464.53 595.277,1426.81C591.919,1412.08 586.428,1380.95 585.417,1370.91C584.836,1365.14 583.567,1354.15 581.836,1339.9C578.455,1312.06 578.456,1245.54 581.837,1214.59C582.378,1209.64 583.069,1203.11 583.373,1200.08C584.815,1185.71 588.107,1162.68 590.225,1152.16C591.055,1148.04 592.236,1141.72 592.844,1138.14C602.213,1083.12 633.367,996.594 662.473,944.764C665.205,939.898 668.932,933.211 670.75,929.911C678.519,915.81 697.703,885.526 705.213,875.51C707.481,872.485 711.234,867.195 713.522,863.797C715.81,860.399 721.709,852.579 726.68,846.352C731.651,840.126 737.79,832.423 740.322,829.238C742.853,826.053 746.813,822.225 749.354,820.515C753.854,817.487 756.95,814.809 758.177,812.947C759.403,811.085 758.567,808.531 756.532,807.817C751.873,806.182 741.715,797.365 739.454,792.993C737.785,789.766 726.545,779.149 724.882,779.149C723.508,779.149 716.546,771.335 714.583,767.76C713.668,766.095 711.205,763.682 709.542,762.823C705.612,760.79 681.21,736.388 679.177,732.458C678.318,730.795 675.904,728.332 674.237,727.417C670.898,725.585 650.851,706.461 650.851,705.055C650.851,703.157 640.111,691.333 637.524,690.427C634.376,689.324 616.643,671.705 613.673,666.754C612.581,664.934 609.985,662.377 608.294,661.446C604.538,659.38 592.327,647.074 589.64,642.656C588.565,640.888 585.998,638.378 584.32,637.448C580.419,635.284 567.845,622.728 565.223,618.383C564.12,616.556 561.529,614.053 559.882,613.211C556.49,611.476 548.851,604.445 548.851,602.919C548.851,601.314 539.235,591.215 536.047,589.567C532.505,587.735 525.85,580.889 523.583,576.76C522.668,575.095 520.182,572.671 518.492,571.797C514.552,569.759 490.828,546.057 488.797,542.129C487.949,540.49 485.384,537.814 483.459,536.579C479.358,533.949 461.046,516.017 459.493,513.1C457.242,508.874 449.747,500.999 446.856,499.781C443.365,498.31 425.621,480.667 422.673,475.754C421.581,473.934 418.974,471.375 417.273,470.445C413.584,468.428 399.851,455.033 399.851,453.371C399.851,452.043 392.422,445.149 390.977,445.149C389.543,445.149 376.49,431.237 374.583,427.762C373.668,426.096 371.056,423.624 369.221,422.696C367.385,421.769 365.118,419.938 363.84,418.351C361.698,415.691 359.018,414.371 356.348,415.501C353.677,416.632 349.75,420.147 343.672,426.287C328.979,441.129 327.149,443.645 327.149,446.588C327.149,448.553 323.941,451.966 312.401,463.396C299.538,476.137 297.149,479.296 297.149,481.934C297.149,484.517 295.569,486.254 286.01,495.893C277.046,504.932 274.248,508.58 273.718,511.404C273.211,514.108 271.229,516.626 264.967,522.973C258.497,529.531 256.293,532.66 255.835,535.483C255.388,538.236 254.047,540.002 249.459,544.341C244.496,549.034 243.149,551.251 243.149,553.902C243.149,556.513 242.361,557.517 237.913,561.757C233.494,565.97 232.149,568.241 232.149,570.802C232.149,573.38 231.26,574.498 226.406,579.233C221.456,584.062 220.149,586.275 220.149,589.01C220.149,591.766 219.402,592.667 214.416,597.382C209.411,602.115 208.149,604.228 208.149,607.016C208.149,609.481 207.558,610.562 205.161,612.86C199.135,618.638 196.149,623.162 196.149,626.035C196.149,628.037 195.63,628.795 193.507,630.307C191.059,632.05 190.149,633.848 190.149,637C190.149,640.098 189.947,640.569 187.682,642.182C186.069,643.33 184.035,646.314 183.369,648.536C182.727,650.678 181.543,652.862 180.438,653.861C179.333,654.861 178.149,656.885 178.149,657.587C178.149,658.289 177.157,659.132 175.507,660.307C173.088,662.029 172.149,663.862 172.149,666.88C172.149,669.88 171.898,670.38 169.494,672.158C167.166,673.879 166.149,675.835 166.149,678.522C166.149,681.109 165.675,682.026 163.434,684.022C161.238,685.98 160.149,688.222 160.149,690.658C160.149,693.094 159.631,694.065 157.434,696.022C155.238,697.98 154.149,700.222 154.149,702.658C154.149,705.094 153.631,706.065 151.434,708.022C149.238,709.98 148.149,712.222 148.149,714.658C148.149,717.094 147.631,718.065 145.434,720.022C143.238,721.98 142.149,724.222 142.149,726.658C142.149,729.094 141.631,730.065 139.434,732.022C137.294,733.929 136.149,736.239 136.149,738.5C136.149,740.761 135.574,741.8 133.434,743.707C131.238,745.664 130.149,747.906 130.149,750.342C130.149,752.778 129.631,753.75 127.434,755.707C125.126,757.763 124.149,759.866 124.149,762.703C124.149,765.296 123.627,766.594 121.827,768.472C119.889,770.495 118.898,773.076 118.465,777.533C118.002,782.308 117.617,783.388 115.288,785.573C113.24,787.495 112.149,789.843 112.149,792.221C112.149,794.673 111.646,795.611 109.439,797.548C106.979,799.706 106.146,801.598 106.131,805.156C106.118,808.302 105.439,810.234 103.278,813.423C101.325,816.304 100.149,819.553 100.149,821.928C100.149,824.706 99.7369,825.531 97.4389,827.548C94.6953,829.955 94.1493,831.364 94.1493,837.187C94.1493,843.01 94.1826,843.14 91.4389,845.548C88.9792,847.706 88.1461,849.598 88.1311,853.156C88.118,856.302 87.4387,858.234 85.2776,861.423C82.6993,865.228 82.1493,867.212 82.1493,873.035C82.1493,879.014 82.2682,879.232 80.1672,880.609C78.3439,881.804 77.3088,883.948 76.9352,887.836C76.6257,891.057 75.64,893.862 73.9493,896.301C71.7203,899.518 71.1493,901.682 71.1493,907.394C71.1493,913.683 71.219,913.734 68.4389,916.174C65.7303,918.55 65.1488,920.03 65.1438,925.472C65.1368,932.937 64.0309,937.515 61.4236,939.874C59.803,941.341 59.1493,943.586 59.1493,949.12C59.1493,955.261 59.0659,955.705 56.3608,958.786C53.5319,962.008 53.1493,963.248 53.1493,971.245C53.1493,979.162 53.1348,979.446 50.334,982.971C47.4008,986.662 47.1493,987.526 47.1493,998.565C47.1493,1009.69 47.4351,1009.22 44.7249,1011.34C42.0783,1013.42 41.6314,1014.56 41.1502,1025.47C40.7043,1035.57 40.549,1036.69 38.3196,1039.66C35.988,1042.77 35.6162,1044.45 35.1498,1058.06C34.6737,1071.95 34.6696,1072.38 32.051,1076.16C29.3374,1080.07 29.1493,1080.81 29.1493,1096.24C29.1493,1112.3 28.8253,1114.95 25.4569,1118.57C23.6574,1120.5 23.254,1123.05 22.9624,1144.85L23.4968,1168.5L20.7484,1173.4L18,1178.3L18,1273.57L18,1368.85L20.75,1372.11L23.5,1375.38L22.961,1401.94C23.2465,1426.26 23.6599,1429.25 25.374,1431.08C28.8214,1434.77 29.1493,1437.81 29.1493,1456.56L30,1474.98L33,1477.66L36,1480.33L36,1492.98L36,1505.62L39,1507.84L42,1510.06L41.1493,1522.95C41.1493,1535.49 41.4243,1536.48 44.0355,1539.59C46.4778,1542.49 46.5746,1543.25 47.0869,1552.97C47.603,1562.77 48.0813,1564.45 50.5993,1567.44C53.1298,1570.44 53.1493,1570.84 53.1493,1578.69C53.1493,1586.76 53.5283,1587.99 56.3608,1591.21C59.0659,1594.3 59.1493,1594.74 59.1493,1600.88C59.1493,1606.41 59.803,1608.66 61.4236,1610.13C64.0309,1612.49 65.1368,1617.06 65.1438,1624.53C65.1488,1629.97 65.7302,1631.45 68.4389,1633.83C71.219,1636.27 71.1493,1636.32 71.1493,1642.61C71.1493,1648.32 71.7202,1650.48 73.9493,1653.7C75.64,1656.14 76.6257,1658.94 76.9352,1662.16C77.3088,1666.05 78.3439,1668.2 80.1672,1669.39C82.2532,1670.76 82.1493,1671 82.1493,1676.71C82.1493,1682.63 82.6826,1684.07 85.4193,1686.62C88.1276,1689.15 88.1493,1689.4 88.1493,1694.99C88.1493,1700.62 88.7123,1702.06 91.4389,1704.45C94.1826,1706.86 94.1493,1706.99 94.1493,1712.81C94.1493,1718.64 94.6953,1720.04 97.4389,1722.45C99.7406,1724.47 100.149,1725.29 100.149,1728.09C100.149,1730.62 101.242,1733.4 103.334,1736.03C105.755,1739.08 106.149,1740.23 106.149,1744.23C106.149,1748.48 106.864,1750.19 109.439,1752.45C111.646,1754.39 112.149,1755.33 112.149,1757.78C112.149,1760.16 113.24,1762.5 115.288,1764.43C117.617,1766.61 118.002,1767.69 118.465,1772.47C118.898,1776.92 119.889,1779.5 121.827,1781.53C123.627,1783.41 124.149,1784.7 124.149,1787.3C124.149,1790.13 125.126,1792.24 127.434,1794.29C129.631,1796.25 130.149,1797.22 130.149,1799.66C130.149,1802.09 131.238,1804.34 133.434,1806.29C135.574,1808.2 136.149,1809.24 136.149,1811.5C136.149,1813.76 137.294,1816.07 139.434,1817.98C141.631,1819.93 142.149,1820.91 142.149,1823.34C142.149,1825.78 143.238,1828.02 145.434,1829.98C147.631,1831.93 148.149,1832.91 148.149,1835.34C148.149,1837.78 149.238,1840.02 151.434,1841.98C153.631,1843.93 154.149,1844.91 154.149,1847.34C154.149,1849.78 155.238,1852.02 157.434,1853.98C159.631,1855.93 160.149,1856.91 160.149,1859.34C160.149,1861.78 161.238,1864.02 163.434,1865.98C165.675,1867.97 166.149,1868.89 166.149,1871.48C166.149,1874.17 167.166,1876.12 169.494,1877.84C171.898,1879.62 172.149,1880.12 172.149,1883.12C172.149,1886.1 173.092,1887.97 175.375,1889.6C177.337,1891 178.093,1892.28 178.519,1894.86C178.963,1897.56 180.934,1900.79 184.865,1905.06C189.152,1909.71 190.149,1911.17 190.149,1913.66C190.149,1916.08 191.243,1918.08 193.507,1919.69C195.63,1921.2 196.149,1921.96 196.149,1923.97C196.149,1926.84 199.135,1931.36 205.161,1937.14C207.653,1939.53 208.149,1940.48 208.149,1943.25C208.149,1946.12 209.122,1947.99 211.507,1949.69C213.157,1950.87 214.149,1951.6 214.149,1952.17C214.149,1952.74 215.474,1955.1 216.849,1956.73C218.224,1958.36 219.149,1960.03 219.149,1961.11C219.149,1962.18 220.752,1965.09 222.426,1966.86C227.661,1972.4 231.149,1977.2 231.149,1979.22C231.149,1980.3 234.103,1984.44 237.403,1987.69C242.192,1992.4 243.149,1993.62 243.149,1996.11C243.149,1998.63 244.645,2001.04 249.907,2006.15C254.375,2010.48 256.149,2012.6 256.149,2014.27C256.149,2017.01 258.304,2020.14 267.039,2028.96C270.883,2032.84 273.339,2036.14 273.962,2038.4C275.05,2042.34 276.025,2043.71 284.891,2052.81C288.191,2056.19 292.702,2061.79 295.044,2065.4C301.346,2075.11 301.871,2075.74 314.974,2088.95C324.09,2098.14 326.988,2101.53 327.499,2104.08C327.871,2105.94 329.285,2108.83 330.376,2109.98C345.424,2125.91 354.818,2134.38 357.295,2134.67ZM292.632,1333.41C290.133,1333.3 289.1,1333.16 288.345,1332.44C287.591,1331.73 287.826,1331.68 288.641,1330.18C291.823,1324.34 295.622,1318.1 300.209,1311.18C302.959,1307.03 306.002,1302.33 306.948,1300.77C307.895,1299.22 309.232,1297.06 309.929,1295.96C316.505,1285.58 316.886,1284.34 316.233,1281.35C315.87,1279.68 314.451,1276.78 313.285,1275.32C312.119,1273.86 309.962,1270.58 308.406,1267.92C305.351,1262.68 302.751,1258.54 298.493,1252.12C296.999,1249.87 294.851,1246.3 293.671,1244.1C292.49,1241.9 290.52,1238.96 289.442,1237.78C287.749,1235.93 287.576,1235.95 289.615,1235.07C291.653,1234.2 295.277,1233.85 301.268,1233.85C313.665,1233.85 311.171,1231.85 324.749,1255.18C327.389,1259.72 330.867,1263.85 331.577,1263.85C335.043,1263.85 338.988,1261.09 340.448,1257.59C341.309,1255.53 342.953,1252.79 344.265,1251.23C345.577,1249.67 346.851,1247.3 346.851,1246.62C346.851,1245.95 348.526,1243.07 350.741,1239.66C354.437,1233.97 354.391,1233.84 357.806,1233.73C359.854,1233.66 364.191,1233.5 367.443,1233.39C372.329,1233.21 374.41,1233.68 375.246,1235.68C376.082,1237.68 375.002,1239.79 371.647,1243.62C370.837,1244.55 369.33,1246.75 368.418,1248.35C364.698,1254.89 362.716,1257.9 360.102,1260.98C358.589,1262.76 357.149,1265.23 357.149,1265.81C357.149,1266.38 356.279,1267.57 354.971,1269.13C353.664,1270.68 351.456,1274.35 350.019,1277.33L348.018,1283.34L349.724,1288.56C351.131,1291.44 353.543,1295.78 354.882,1297.59C356.22,1299.41 357.149,1300.9 357.149,1301.52C357.149,1302.14 358.543,1304.33 359.918,1305.62C361.293,1306.91 362.149,1307.77 362.149,1308.29C362.149,1308.81 363.889,1311.88 365.814,1314.5C367.739,1317.13 369.149,1319.13 369.149,1319.57C369.149,1320.01 370.232,1321.88 371.279,1323.01C372.326,1324.15 373.706,1326.48 374.542,1328.51C375.648,1331.2 376.211,1331.68 374.702,1332.53C373.192,1333.37 370.415,1333.41 364.717,1333.29C353.434,1333.05 353.704,1333.32 351.22,1329.38C350.12,1327.63 347.781,1323.92 346.022,1321.12C344.264,1318.33 342.1,1314.74 341.184,1313.09C338.755,1308.71 332.87,1303.15 330.903,1303.15C329.115,1303.15 327.654,1304.55 318.822,1318.95C309.582,1334.02 309.391,1334.14 292.632,1333.41ZM236.74,1302.14C233.303,1301.95 232.851,1300.04 232.851,1292.66C232.851,1282.96 231.911,1283.85 255.485,1283.85C272.139,1283.85 275.526,1283.87 276.736,1285.08C278.936,1287.28 279.448,1292.82 278.115,1298.12C277.035,1302.41 277.481,1302.16 274.608,1302.24C269.489,1302.38 239.777,1302.3 236.74,1302.14Z" fill-rule="evenodd" fill="#EFECEB"/>
<path d="M2193.86,2134.65C2197.38,2135.03 2218.24,2115.44 2219.43,2110.58C2220.47,2106.35 2222.53,2104.04 2239.35,2087.08C2252.34,2073.98 2254.85,2070.65 2254.85,2068.05C2254.85,2065.49 2256.46,2063.72 2265.99,2054.11C2275.12,2044.9 2277.75,2041.45 2278.3,2038.48C2278.85,2035.55 2280.63,2033.4 2287.68,2026.53C2295.32,2019.08 2296.85,2016.76 2296.85,2013.95C2296.85,2011.24 2297.63,2010.31 2302.58,2005.62C2307.51,2000.96 2308.85,1998.75 2308.85,1996.1C2308.85,1993.49 2309.64,1992.48 2314.09,1988.24C2318.5,1984.04 2319.85,1981.76 2319.85,1979.21C2319.85,1976.67 2320.74,1975.52 2325.35,1971C2330.61,1965.84 2332.8,1962.65 2337.15,1953.77C2337.98,1952.06 2339.52,1950.25 2340.92,1949.33C2342.88,1948.05 2343.85,1946.11 2343.85,1943.3C2343.85,1940.48 2344.33,1939.54 2346.84,1937.14C2352.87,1931.36 2355.85,1926.84 2355.85,1923.97C2355.85,1921.96 2356.37,1921.2 2358.49,1919.69C2360.84,1918.02 2361.85,1916.11 2361.85,1913.4C2361.85,1910.51 2362.62,1909.49 2367.61,1904.35C2372.43,1899.4 2373.85,1896.95 2373.85,1894.36C2373.85,1891.92 2374.22,1891.31 2376.49,1889.69C2378.91,1887.97 2379.85,1886.14 2379.85,1883.12C2379.85,1880.12 2380.1,1879.62 2382.51,1877.84C2384.83,1876.12 2385.85,1874.17 2385.85,1871.48C2385.85,1868.89 2386.32,1867.97 2388.57,1865.98C2390.76,1864.02 2391.85,1861.78 2391.85,1859.34C2391.85,1856.91 2392.37,1855.93 2394.57,1853.98C2396.76,1852.02 2397.85,1849.78 2397.85,1847.34C2397.85,1844.91 2398.37,1843.93 2400.57,1841.98C2402.76,1840.02 2403.85,1837.78 2403.85,1835.34C2403.85,1832.91 2404.37,1831.93 2406.57,1829.98C2408.76,1828.02 2409.85,1825.78 2409.85,1823.34C2409.85,1820.91 2410.37,1819.93 2412.57,1817.98C2414.71,1816.07 2415.85,1813.76 2415.85,1811.5C2415.85,1809.24 2416.43,1808.2 2418.57,1806.29C2420.76,1804.34 2421.85,1802.09 2421.85,1799.66C2421.85,1797.22 2422.37,1796.25 2424.57,1794.29C2426.76,1792.34 2427.85,1790.09 2427.85,1787.66C2427.85,1785.22 2428.37,1784.25 2430.57,1782.29C2433.3,1779.86 2433.85,1778.42 2433.85,1772.71C2433.85,1767 2433.83,1766.85 2436.56,1764.45C2438.78,1762.51 2439.85,1760.3 2439.85,1757.81C2439.85,1755.32 2440.34,1754.4 2442.56,1752.45C2445.14,1750.19 2445.85,1748.48 2445.85,1744.23C2445.85,1740.23 2446.24,1739.08 2448.67,1736.03C2450.76,1733.4 2451.85,1730.62 2451.85,1728.09C2451.85,1725.29 2452.26,1724.47 2454.56,1722.45C2457.3,1720.04 2457.85,1718.64 2457.85,1712.81C2457.85,1706.99 2457.82,1706.86 2460.56,1704.45C2463.02,1702.29 2463.85,1700.4 2463.87,1696.84C2463.88,1693.7 2464.56,1691.77 2466.72,1688.58C2469.3,1684.77 2469.85,1682.79 2469.85,1676.96C2469.85,1670.88 2469.71,1670.78 2471.97,1669.3C2474.21,1667.83 2474.85,1666.29 2474.85,1660.39C2474.85,1654.34 2474.8,1654.25 2477.56,1651.83C2480.3,1649.42 2480.85,1648.01 2480.85,1642.19C2480.85,1636.36 2480.82,1636.23 2483.56,1633.83C2486.27,1631.45 2486.85,1629.97 2486.86,1624.53C2486.86,1617.06 2487.97,1612.49 2490.58,1610.13C2492.2,1608.66 2492.85,1606.41 2492.85,1600.85C2492.85,1594.52 2492.79,1594.45 2495.57,1591.98C2498.49,1589.37 2498.85,1588.43 2498.85,1579.47C2498.85,1570.76 2498.82,1570.61 2501.67,1567.03C2504.6,1563.34 2504.85,1562.47 2504.85,1551.44C2504.85,1540.31 2504.56,1540.78 2507.28,1538.66C2509.92,1536.58 2510.37,1535.43 2510.85,1524.61C2511.3,1514.39 2511.45,1513.44 2513.95,1509.84C2516.59,1506.03 2516.85,1504.9 2516.85,1492.88L2516,1480.37L2519,1477.5L2522,1474.63L2522.85,1456.28C2522.85,1437.39 2523.25,1433.8 2526.89,1430.78C2528.35,1429.57 2528.85,1425.82 2528.85,1404.02L2528,1379.28L2531,1375.5L2534,1371.72L2534,1275L2534,1178.28L2531,1174.5L2528,1170.72L2528.85,1145.98C2528.85,1124.18 2528.35,1120.43 2526.89,1119.22C2523.36,1116.29 2522.85,1112.5 2522.85,1096.34C2522.85,1080.81 2522.66,1080.07 2519.95,1076.16C2517.33,1072.38 2517.33,1071.95 2516.85,1058.06C2516.38,1044.45 2516.01,1042.77 2513.68,1039.66C2511.45,1036.69 2511.3,1035.57 2510.85,1025.47C2510.37,1014.56 2509.92,1013.42 2507.28,1011.34C2504.56,1009.22 2504.85,1009.69 2504.85,998.565C2504.85,987.526 2504.6,986.662 2501.67,982.971C2498.88,979.467 2498.85,979.133 2498.85,971.5C2498.85,963.867 2498.45,962.474 2495.67,958.971C2493.01,955.624 2492.85,954.965 2492.85,949.017C2492.85,943.586 2492.19,941.336 2490.58,939.874C2487.97,937.515 2486.86,932.937 2486.86,925.472C2486.85,920.03 2486.27,918.55 2483.56,916.174C2480.78,913.734 2480.85,913.683 2480.85,907.394C2480.85,901.682 2480.28,899.518 2478.05,896.301C2476.32,893.799 2475.38,891.077 2475.06,887.652C2474.73,884.15 2473.59,881.021 2472.01,879.128C2470.22,876.982 2469.85,875.637 2469.85,871.824C2469.85,867.534 2469.14,865.773 2466.58,863.378C2463.89,860.86 2463.85,860.582 2463.85,855.134C2463.85,849.822 2463.27,848.085 2460.64,845.092C2458.06,842.149 2457.85,841.444 2457.85,836.528C2457.85,831.437 2457.24,829.895 2454.56,827.548C2452.26,825.531 2451.85,824.706 2451.85,821.928C2451.85,819.553 2450.67,816.304 2448.72,813.423C2446.56,810.234 2445.88,808.302 2445.87,805.156C2445.85,801.598 2445.02,799.706 2442.56,797.548C2440.34,795.601 2439.85,794.677 2439.85,792.187C2439.85,789.697 2438.78,787.494 2436.56,785.548C2433.83,783.148 2433.85,783 2433.85,777.285C2433.85,771.579 2433.3,770.14 2430.57,767.707C2428.37,765.75 2427.85,764.778 2427.85,762.342C2427.85,759.906 2426.76,757.664 2424.57,755.707C2422.37,753.75 2421.85,752.778 2421.85,750.342C2421.85,747.906 2420.76,745.664 2418.57,743.707C2416.43,741.8 2415.85,740.761 2415.85,738.5C2415.85,736.239 2414.71,733.929 2412.57,732.022C2410.37,730.065 2409.85,729.094 2409.85,726.658C2409.85,724.222 2408.76,721.98 2406.57,720.022C2404.37,718.065 2403.85,717.094 2403.85,714.658C2403.85,712.222 2402.76,709.98 2400.57,708.022C2398.37,706.065 2397.85,705.094 2397.85,702.658C2397.85,700.222 2396.76,697.98 2394.57,696.022C2392.37,694.065 2391.85,693.094 2391.85,690.658C2391.85,688.222 2390.76,685.98 2388.57,684.022C2386.32,682.026 2385.85,681.109 2385.85,678.522C2385.85,675.835 2384.83,673.879 2382.51,672.158C2380.1,670.38 2379.85,669.88 2379.85,666.88C2379.85,663.862 2378.91,662.029 2376.49,660.307C2374.22,658.689 2373.85,658.081 2373.85,655.639C2373.85,653.049 2372.43,650.605 2367.61,645.65C2362.62,640.515 2361.85,639.492 2361.85,636.605C2361.85,633.892 2360.84,631.978 2358.49,630.307C2356.37,628.797 2355.85,628.036 2355.85,626.041C2355.85,623.145 2349.86,614.655 2345.64,611.695C2344.11,610.628 2343.85,609.836 2343.85,607.28C2343.85,604.17 2342.76,602.276 2337.58,597.382C2332.56,592.628 2331.85,591.779 2331.85,588.951C2331.85,586.645 2330.78,584.165 2329.02,582.431C2324.67,578.156 2320.85,572.829 2320.85,570.777C2320.85,569.705 2317.9,565.564 2314.6,562.314C2309.81,557.6 2308.85,556.383 2308.85,553.894C2308.85,551.368 2307.35,548.962 2302.09,543.853C2297.62,539.515 2295.85,537.397 2295.85,535.735C2295.85,532.983 2293.7,529.863 2284.85,520.934C2280.61,516.648 2278.62,513.979 2278.18,511.698C2277.45,507.949 2277.35,507.674 2264.12,494.235C2256.18,486.167 2254.85,484.645 2254.85,482.029C2254.85,479.326 2252.51,476.181 2239.35,462.921C2222.53,445.962 2220.47,443.645 2219.43,439.423C2218.4,435.226 2197.68,415.149 2194.42,415.149C2189.65,415.149 2184.22,418.408 2182.66,422.139C2181.09,425.913 2167.66,440.149 2165.6,440.149C2163.98,440.149 2158.89,445.468 2157.43,448.918C2156.79,450.43 2156.42,451.149 2155.66,451.149C2153.44,451.149 2148.35,455.505 2146.45,459.206C2145.48,461.084 2143.49,463.089 2141.58,464.104C2139.67,465.12 2136.6,467.977 2135.13,470.121C2131.79,475.007 2109.24,497.431 2104.53,500.539C2102.61,501.811 2099.85,504.823 2098.75,506.858C2097.65,508.893 2095.93,510.694 2094.41,511.325C2091.44,512.552 2086.69,517.597 2085.77,520.485C2085.46,521.451 2083.93,522.651 2081.89,523.751C2079.84,524.851 2076.8,527.592 2075.52,529.505C2072.18,534.479 2066.35,540.445 2062.53,542.774C2060.72,543.874 2058.21,546.445 2057.32,548.095C2055.37,551.695 2036.37,571.149 2034.75,571.149C2033.2,571.149 2027.15,577.079 2027.15,578.595C2027.15,580.378 2019.39,587.789 2015.65,589.725C2013.88,590.638 2011.33,593.112 2010.42,594.794C2007.92,599.378 2001.64,605.469 1997.36,607.428C1994.75,608.621 1992.67,610.722 1991.65,613.176C1989.96,617.218 1978.64,628.853 1974.13,631.197C1972.49,632.048 1969.81,634.615 1968.58,636.54C1965.81,640.855 1965.86,640.801 1961.54,643.589C1959.61,644.831 1956.89,647.756 1955.83,649.709C1954.78,651.662 1952.66,653.779 1950.71,654.834C1948.76,655.888 1945.81,658.606 1944.54,660.531C1941.51,665.132 1916.94,690.149 1915.4,690.149C1913.81,690.149 1907.15,697.683 1907.15,699.514C1907.15,700.309 1905.85,701.101 1903.7,702.199C1899.93,704.121 1895.15,709.646 1895.15,711.884C1895.15,712.475 1893.84,713.108 1891.66,714.216C1889.49,715.324 1886.59,717.66 1885.6,719.076C1881.1,725.511 1876.05,730.898 1872.89,732.565C1870.99,733.565 1868.33,736.097 1867.42,737.772C1865.33,741.588 1845.31,762.149 1843.62,762.149C1842.08,762.149 1836.15,768.188 1836.15,769.766C1836.15,771.371 1828.73,778.353 1825.09,780.328C1823.44,781.223 1820.79,783.766 1819.56,785.636C1815.86,791.284 1810.12,797.053 1807.36,797.746C1803.23,798.784 1800.43,803.347 1800.3,808.005C1800.16,812.663 1802.27,818.796 1806.24,823.42C1808.78,826.37 1813.87,832.64 1817.59,837.389C1821.31,842.139 1827.2,849.627 1830.67,854.027C1860.39,891.688 1893.04,947.011 1914.55,996.146C1927.54,1025.83 1943.43,1071.26 1949,1094.7C1949.53,1096.9 1951.11,1103.21 1952.52,1108.71C1969.47,1174.99 1976.99,1270.69 1970.23,1333.91C1966.79,1366 1965.74,1374.18 1962.61,1392.86C1947.92,1480.64 1914.98,1567.86 1868.32,1642.55C1849.76,1672.25 1816.3,1717.55 1805.03,1728.19C1799.56,1733.35 1799.15,1734.26 1799.15,1739.49C1799.15,1743.94 1800.08,1745.78 1801.69,1746.3C1803.8,1746.97 1854.15,1796.57 1854.15,1797.99C1854.15,1799.14 1860.91,1805.85 1862.07,1805.85C1863.22,1805.85 1883.15,1826.1 1883.15,1827.26C1883.15,1828.96 1894.18,1840.01 1897.86,1841.88C1899.92,1842.94 1901.15,1843.67 1901.15,1844.44C1901.15,1846.57 1906.28,1852.38 1909.41,1853.67C1910.93,1854.31 1912.65,1856.11 1913.75,1858.14C1914.85,1860.18 1917.61,1863.18 1919.53,1864.44C1924.14,1867.45 1978.07,1921.15 1979.75,1924.4C1981.25,1927.3 1992.39,1937.85 1993.88,1937.85C1995.08,1937.85 2045.15,1987.81 2045.15,1989.01C2045.15,1990.14 2051.92,1996.85 2053.07,1996.85C2054.23,1996.85 2074.15,2017.1 2074.15,2018.28C2074.15,2019.9 2085.78,2031.59 2088.65,2032.78C2090.22,2033.43 2091.59,2034.82 2092.26,2036.43C2093.54,2039.53 2098.54,2044.29 2101.49,2045.23C2102.45,2045.54 2103.65,2047.07 2104.75,2049.13C2105.85,2051.18 2108.52,2054.1 2110.31,2055.21C2114.13,2057.57 2170.15,2112.76 2170.15,2114.18C2170.15,2115.73 2182.16,2127.85 2183.69,2127.85C2184.45,2127.85 2185.81,2129.04 2187.47,2130.83C2189.21,2132.7 2192.23,2134.48 2193.86,2134.65ZM2206.63,1333.41C2204.13,1333.3 2203.1,1333.16 2202.35,1332.44C2201.59,1331.73 2201.83,1331.68 2202.64,1330.18C2207.05,1322.08 2211.55,1314.93 2221.82,1299.7C2223.41,1297.34 2224.85,1294.66 2224.85,1294.32C2224.85,1293.97 2225.9,1292.6 2227.4,1290.63C2230.87,1286.09 2230.91,1279.79 2227.54,1275.61C2226.23,1273.99 2223.96,1270.58 2222.41,1267.92C2219.35,1262.68 2216.75,1258.54 2212.49,1252.12C2211,1249.87 2208.85,1246.3 2207.67,1244.1C2206.49,1241.9 2204.52,1238.96 2203.44,1237.78C2201.75,1235.93 2201.58,1235.95 2203.61,1235.07C2205.65,1234.2 2209.28,1233.85 2215.27,1233.85C2227.67,1233.85 2225.17,1231.85 2238.75,1255.18C2241.39,1259.72 2244.87,1263.85 2245.58,1263.85C2249.04,1263.85 2252.99,1261.09 2254.45,1257.59C2255.31,1255.53 2256.95,1252.79 2258.27,1251.23C2259.58,1249.67 2260.85,1247.3 2260.85,1246.62C2260.85,1245.95 2262.53,1243.07 2264.74,1239.66C2269.2,1232.8 2266.85,1233.8 2282.02,1233.47C2286.63,1233.37 2288.52,1233.84 2289.26,1235.82C2289.99,1237.8 2288.92,1239.89 2285.65,1243.62C2284.84,1244.55 2283.33,1246.75 2282.42,1248.35C2278.7,1254.89 2276.72,1257.9 2274.1,1260.98C2272.59,1262.76 2271.15,1265.23 2271.15,1265.81C2271.15,1266.38 2270.28,1267.57 2268.97,1269.13C2267.66,1270.68 2265.46,1274.35 2264.02,1277.33L2262.02,1283.34L2263.85,1288.92C2265.32,1291.99 2267.76,1296.31 2269.03,1297.86C2270.3,1299.42 2271.15,1300.72 2271.15,1301.4C2271.15,1302.09 2272.54,1304.33 2273.92,1305.62C2275.29,1306.91 2276.15,1307.77 2276.15,1308.29C2276.15,1308.81 2277.89,1311.88 2279.81,1314.5C2281.74,1317.13 2283.15,1319.13 2283.15,1319.57C2283.15,1320.01 2284.23,1321.88 2285.28,1323.01C2286.33,1324.15 2287.71,1326.48 2288.54,1328.51C2289.65,1331.2 2290.21,1331.68 2288.7,1332.53C2287.19,1333.37 2284.41,1333.41 2278.72,1333.29C2267.43,1333.05 2267.7,1333.32 2265.22,1329.38C2264.12,1327.63 2261.78,1323.92 2260.02,1321.12C2258.26,1318.33 2256.1,1314.74 2255.18,1313.09C2252.75,1308.71 2246.87,1303.15 2244.9,1303.15C2243.96,1303.15 2241.42,1305.19 2240.13,1307.2C2235.13,1315 2231.29,1321.21 2229.7,1324.09C2224.74,1333.03 2221.89,1334.08 2206.63,1333.41ZM2133.96,826.964C2122.19,827.458 2119.44,826.295 2110.4,817.106C2105.21,811.827 2104.78,810.361 2104.46,798.823C2104.01,782.779 2108.49,773.713 2124.63,757.566C2130.42,751.772 2136.85,746.186 2139.17,744.968C2141.49,743.75 2145.13,741.838 2147.25,740.719C2152.08,738.173 2168.15,736.996 2174.43,738.713C2179.64,740.133 2185.16,744.715 2189.59,751.125L2193.5,755.371L2192.65,767.435C2192.65,779.354 2192.72,779.149 2189.32,785.077C2179.96,801.398 2168.8,812.925 2153.84,821.69C2146.63,825.911 2144.25,826.533 2133.96,826.964ZM2070.16,768.488C2065.04,768.243 2063.14,766.31 2064.74,762.43C2066.03,759.317 2117.17,707.851 2118.99,707.851C2119.55,707.851 2120.85,706.325 2120.85,705.5C2120.85,704.675 2119.51,703.149 2118.9,703.149C2118.3,703.149 2117.04,702.408 2115.5,701.309C2113.95,700.21 2108.84,698.496 2104.54,697.673C2099.79,696.764 2096.42,695.664 2095.26,694.503C2094.32,693.563 2094.04,694.021 2094.28,693.458C2094.53,692.896 2095.18,692.625 2097.09,691.383C2099.94,689.528 2101.32,689.107 2103.89,689.431C2105.82,689.673 2112.16,690.292 2117.96,690.803C2129.78,691.845 2131.51,692.335 2136.29,696.519C2139.16,699.035 2140.42,699.22 2136.57,704.405C2132.71,709.59 2123.7,718.533 2105.61,736.463C2074.95,766.86 2073.33,768.64 2070.16,768.488ZM2008.45,708.883C2007.4,709.153 2006.4,708.618 2005.08,707.376C2003.38,705.777 2003.06,705.257 2004.25,702.893C2005.43,700.529 2008.13,697.545 2013.13,692.575C2017.79,687.94 2021.85,682.849 2021.85,682C2021.85,681.151 2017.79,676.064 2013.14,671.434C2008.44,666.762 2005.83,663.769 2004.65,661.29C2003.47,658.81 2003.71,658.049 2005.38,656.379C2007.09,654.665 2007.93,654.423 2010.45,655.622C2012.97,656.82 2015.97,659.453 2020.58,664.17C2025.11,668.803 2030,672.851 2030.72,672.851C2031.43,672.851 2036.46,668.9 2041.17,664.363C2047.14,658.611 2050.13,655.775 2052.34,654.682C2054.55,653.589 2054.81,654.252 2056.78,656.076C2058.62,657.781 2059.05,658.232 2057.82,660.683C2056.58,663.134 2053.87,666.203 2048.31,671.882L2039.76,681.78L2047.13,690.14C2052.34,695.436 2055.48,699.351 2056.79,701.998C2058.09,704.645 2057.83,705.422 2056.1,707.155C2054.35,708.904 2053.92,709.36 2051.62,708.246C2049.31,707.132 2046.32,704.437 2040.94,699.245C2035.9,694.374 2030.98,690.149 2030.73,690.149C2030.47,690.149 2025.69,694.454 2020.84,699.404C2015.98,704.354 2012.05,708.207 2011.47,708.27C2010.88,708.334 2009.46,708.622 2008.45,708.883Z" fill-rule="evenodd" fill="#EFECEB"/>
<path d="M680.329,2129.52C683.859,2128.56 744.567,2067.91 746.484,2063.43C747.793,2060.36 746.705,2056.46 744.151,2054.12C741.598,2051.78 736.901,2049.82 731.519,2049.15C712.671,2046.8 706.896,2047.06 703.821,2049.71C701.019,2052.12 700.924,2053.42 702.744,2055.43C703.859,2056.66 706.966,2058 709.752,2058.38C717.833,2059.47 722.403,2060.75 724.526,2062.78C726.649,2064.81 725.875,2066.11 722.27,2069.3C712.511,2077.93 672.923,2118.31 672.12,2120.42C670.216,2125.43 675.175,2130.92 680.329,2129.52Z" fill-rule="evenodd" fill="#9A9796"/>
<path d="M661.242,2063.65C663.531,2063.85 665.783,2063.06 667.05,2061.66C668.814,2059.71 668.896,2058.52 666.437,2054.33C663.391,2049.13 641.313,2027.54 637.631,2026.14C634.179,2024.83 630.149,2028.12 630.149,2032.43C630.149,2036.96 656.261,2063.19 661.242,2063.65Z" fill-rule="evenodd" fill="#9A9796"/>
<path d="M1280.5,1973.31C1321.04,1973.28 1324.57,1973.07 1365.6,1968.32C1378.32,1966.85 1408.31,1961.86 1419.19,1959.42C1422.76,1958.61 1429.06,1957.19 1433.19,1956.26C1465.74,1948.91 1516.7,1932.76 1539.09,1922.68C1541.42,1921.63 1543.19,1920.85 1543.46,1920.85C1543.72,1920.85 1546.67,1919.71 1549.57,1918.4C1552.47,1917.1 1558.67,1914.34 1563.34,1912.28C1619.99,1887.25 1698.03,1836.84 1735.09,1801.36C1737.14,1799.39 1738.07,1798.84 1739.65,1799.14C1740.5,1799.3 1741.63,1799.22 1741.91,1799.06C1742.18,1798.9 1742.56,1797.52 1742.35,1796.99C1742.05,1796.19 1741.85,1795.2 1741.85,1794.42C1741.85,1793.38 1739.76,1792.08 1738.49,1792.15C1737.22,1792.23 1735.11,1793.43 1734.77,1794.49C1732.63,1801.21 1695.78,1830.45 1659.03,1854.78C1566.45,1916.07 1458.38,1955.06 1350.41,1966.13C1307.24,1970.56 1259.46,1971.53 1226.57,1968.66C1198.91,1966.23 1179.19,1964.1 1170.37,1962.58C1165.83,1961.79 1160.41,1960.88 1158.36,1960.57C1089.15,1949.96 1005.1,1920.45 939.387,1883.72C898.03,1860.59 848.718,1826.42 825.64,1804.86L819,1799.77L819.851,1793.89C819.851,1791.4 819.746,1789.69 819.494,1788.85C819.241,1788.01 817.95,1787.2 817.212,1787.23C816.689,1787.25 815.77,1787.62 815.682,1787.72C815.594,1787.82 816.058,1789.3 816.432,1789.45C817.246,1789.78 817.149,1791.36 817.149,1795.48L818,1801.78L822.948,1807.14C830.633,1814.24 852.497,1831.64 870.72,1844.67C922.453,1881.66 983.065,1913.28 1042.22,1934.14C1091.06,1951.37 1143.91,1963.53 1195.33,1969.38C1226.59,1972.94 1235.65,1973.36 1280.5,1973.31Z" fill-rule="evenodd" fill="#CEDFCD"/>
<path d="M1268.49,1971.66C1408.26,1973.16 1543.58,1933.25 1659.97,1856.2C1696.72,1831.87 1734.25,1801.73 1736.39,1795.01C1736.72,1793.97 1737.13,1793.85 1738.57,1793.85C1739.91,1793.85 1741.85,1792.5 1741.85,1791.89C1741.85,1790.78 1451.7,1500.15 1450.59,1500.15C1450.43,1500.15 1449.47,1500.96 1449.36,1501.3C1449.25,1501.64 1449.15,1502.37 1449.15,1502.89C1449.15,1504.31 1447.75,1504.77 1441.93,1507.12C1437.67,1508.84 1430.65,1512.61 1426.53,1515.38C1406.07,1529.15 1359.97,1548.31 1340.69,1551.05C1337.22,1551.54 1330.87,1553.03 1326.74,1554.33C1315.48,1557.87 1235.99,1558.01 1224.75,1554.51C1220.9,1553.31 1214.72,1551.81 1211.14,1551.2C1207.57,1550.6 1200.25,1548.76 1194.75,1547.07C1179.46,1542.39 1171.11,1539.09 1150.36,1529.52C1143.98,1526.59 1129.4,1518.15 1121.55,1512.85C1118.56,1510.84 1113.81,1508.53 1111.44,1507.9L1107,1507.59L1107,1498.29L1107,1489L1102.4,1489.1C1098.2,1489.21 1096.15,1488.92 1095.54,1489.69C1094.94,1490.47 1096.27,1493.08 1098.59,1495.38L1103.12,1498.72L957.596,1643.36C897.757,1703.19 861.946,1738.75 841.121,1759.95C820.297,1781.16 815.309,1788.85 816.389,1788.85C818.908,1788.85 818.149,1788.21 818.149,1793.89L819,1799.77L824.429,1805.64C847.507,1827.19 897.199,1862.08 938.556,1885.2C1004.17,1921.88 1088.93,1951.65 1157.87,1962.22C1159.8,1962.51 1165.41,1963.44 1170.36,1964.28C1179.65,1965.87 1211.86,1969.32 1229.44,1970.61C1234.94,1971.02 1252.54,1971.49 1268.49,1971.66ZM1021.13,1788.38C1017.43,1787.96 1014.85,1786.23 1014.85,1783.79C1014.85,1782.29 1022.78,1774.01 1041.1,1755.6C1056.87,1739.76 1064.93,1731.57 1066.9,1727.06C1068.86,1722.54 1064.34,1720.28 1056.39,1718.1C1051.39,1716.73 1048.59,1715.82 1047,1714.82C1045.42,1713.83 1045.55,1714.03 1046.33,1712.75C1048.95,1708.46 1051.74,1707.89 1059.85,1709.37C1063.97,1710.12 1069.51,1710.77 1071.99,1710.8C1076.79,1710.87 1081.33,1712.35 1084.92,1714.57C1088.5,1716.79 1090.35,1718.65 1089.64,1721.11C1089.29,1722.3 1074.31,1737.75 1056.07,1755.9C1028.54,1783.29 1023.18,1788.61 1021.13,1788.38ZM1004.69,1723.01C1002.73,1723.73 999.006,1720.21 986.644,1707.98C978.901,1700.32 974.969,1696.09 973.856,1693.05C972.743,1690.01 974.152,1689.56 978.486,1687.92C980.951,1686.98 980.978,1687.5 993.439,1699.92C1000.9,1707.35 1005.13,1711.89 1007.18,1715.15C1009.24,1718.4 1009.13,1719.15 1007.41,1720.8C1006.22,1721.95 1005.16,1722.84 1004.69,1723.01Z" fill-rule="evenodd" fill="#D0CDCC"/>
<path d="M1021.84,1790.66C1023.26,1791.16 1090.49,1724.28 1091.27,1721.58C1091.98,1719.12 1089.4,1715.34 1085.81,1713.12C1082.22,1710.91 1076.82,1709.16 1072.01,1709.1C1069.54,1709.07 1064.28,1708.44 1060.15,1707.69C1052.05,1706.22 1047.5,1707.58 1044.88,1711.86C1044.1,1713.14 1044.51,1715.27 1046.1,1716.27C1047.69,1717.26 1050.94,1718.37 1055.94,1719.75C1063.89,1721.92 1067.3,1721.86 1065.33,1726.38C1063.36,1730.91 1055.63,1738.6 1039.81,1754.48C1024.46,1769.91 1016.67,1777.75 1014.4,1782.06C1012.13,1786.37 1015.71,1788.55 1021.84,1790.66Z" fill-rule="evenodd" fill="#9A9796"/>
<path d="M1800.68,1738.56C1800.97,1734.47 1801.33,1734.03 1806.28,1729.35C1817.47,1718.78 1851.26,1673.06 1869.76,1643.45C1916.42,1568.76 1949.59,1480.92 1964.29,1393.14C1967.42,1374.46 1968.49,1366.19 1971.92,1334.09C1978.69,1270.88 1971.11,1174.57 1954.16,1108.29C1952.76,1102.79 1951.18,1096.5 1950.66,1094.3C1945.08,1070.86 1929.1,1025.15 1916.11,995.463C1894.77,946.712 1857.5,883.704 1831.23,851.958C1828.96,849.208 1824.51,843.537 1821.32,839.321C1818.14,835.105 1812.61,828.308 1809.09,824.275C1803.55,817.927 1802.89,816.954 1802.86,813.492C1802.84,811.292 1802.25,808.363 1801.71,807.538C1801.37,807.012 1799.58,807.42 1799.42,808.231C1799.26,809.042 1799.17,810.717 1799.17,812.999C1799.16,819.407 1799.49,820.172 1804.01,824.608C1806.54,827.083 1813.1,834.783 1818.69,841.815C1895.56,938.681 1943.22,1046.89 1962.61,1168.63C1970.19,1216.21 1973.18,1286.25 1969.21,1323.41C1968.69,1328.36 1967.54,1340.07 1966.68,1349.42C1955.01,1475.53 1902.12,1603.95 1818.84,1708.47C1805.92,1724.68 1802.53,1728.22 1795.55,1732.64C1793.04,1734.22 1791.36,1736.44 1791.31,1737.83C1791.25,1739.22 1793.1,1741.34 1795.51,1742.36L1799.5,1743.14L1800.68,1738.56Z" fill-rule="evenodd" fill="#CEDFCD"/>
<path d="M1792.83,1737.75C1793.16,1736.65 1794.62,1735.24 1796.51,1734.04C1803.44,1729.65 1807.28,1725.7 1820.17,1709.53C1903.45,1605.01 1956.7,1475.69 1968.37,1349.58C1969.24,1340.23 1970.38,1328.54 1970.91,1323.59C1974.87,1286.43 1971.87,1215.94 1964.29,1168.37C1944.9,1046.62 1896.9,937.623 1820.02,840.757C1814.44,833.725 1807.73,825.867 1805.2,823.392C1800.93,819.201 1800.87,819.144 1800.86,814.343L1800,809.19L1794.9,809.749C1790.79,810.29 1786.27,814.397 1648.4,952.281L1506.07,1095.78L1505.78,1101.14C1506.75,1110.32 1508.03,1113.59 1515.76,1125.95C1527.57,1144.82 1537.42,1165.63 1543.84,1185.26C1548.98,1200.98 1550.21,1205.45 1551.09,1211.67C1551.64,1215.49 1553.15,1221.71 1554.41,1225.28C1558.02,1235.54 1557.94,1314.75 1554.32,1327.77C1553.01,1332.45 1551.36,1339.51 1550.67,1343.37C1546.92,1364.23 1532.83,1398.04 1517.47,1423.05C1508.23,1438.1 1507.21,1440.77 1507.84,1446.08C1508.17,1448.85 1508.01,1451.18 1507.32,1452.47C1506.77,1453.5 1508.91,1457.33 1527.68,1476.54C1546.45,1495.76 1582.01,1531.35 1648.55,1597.88C1707.03,1656.35 1742.63,1691.82 1763.66,1712.46C1784.7,1733.11 1792.58,1738.57 1792.83,1737.75ZM1727.05,1115.08C1726.87,1115.26 1727.4,1114.98 1726.75,1114.59C1726.09,1114.21 1725.43,1113.7 1724.62,1112.92C1722.29,1110.68 1721.61,1110.15 1724.98,1105.52C1728.35,1100.88 1735.79,1093.38 1750.06,1079.21C1764.11,1065.27 1775.85,1052.51 1775.85,1051.59C1775.85,1049.55 1766.48,1044.48 1760.46,1043.58C1755.37,1042.82 1753.59,1041.27 1753.65,1039.03C1753.7,1036.8 1755.47,1035.57 1760.58,1035.52C1772.31,1035.42 1781.33,1036.77 1787.39,1039.33C1793.46,1041.89 1795.74,1044.53 1794.28,1048.97C1793.01,1052.82 1732.43,1114.15 1729.88,1114.15C1729.03,1114.15 1727.43,1114.7 1727.05,1115.08ZM1714.22,1048.91C1713.57,1049.56 1712.77,1048.71 1710.15,1046.91C1707.53,1045.1 1704.3,1042.34 1700.72,1038.77C1696.66,1034.71 1692.04,1031.15 1691.18,1031.15C1690.33,1031.15 1685.13,1035.22 1680.35,1039.89C1672.79,1047.29 1671.8,1048.15 1668.75,1048.15C1664.45,1048.15 1663.44,1047.76 1664.08,1044.91C1664.72,1042.06 1667.6,1038.18 1673.18,1032.47C1677.82,1027.73 1681.85,1022.59 1681.85,1021.78C1681.85,1020.96 1677.83,1015.91 1673.22,1011.3C1668.57,1006.64 1665.95,1003.57 1664.75,1001.05C1663.56,998.525 1663.75,997.775 1665.47,996.226C1668.98,993.042 1671.76,994.917 1680.85,1004.2C1685.38,1008.82 1690.27,1012.85 1690.97,1012.85C1691.68,1012.85 1696.73,1008.81 1701.48,1004.17C1711.2,994.654 1712.88,993.236 1716.28,995.464C1718.39,996.846 1718.64,997.834 1717.72,1000.41C1716.8,1002.98 1714.58,1005.8 1710.64,1009.52C1706.46,1013.47 1705.54,1015.35 1705.91,1017.9C1706.18,1019.71 1706,1021.14 1704.96,1022.71L1703.77,1026.01L1709.63,1032.59C1713.41,1036.3 1715.9,1039.62 1717,1042C1718.1,1044.37 1718.08,1045.19 1716.64,1046.56C1715.67,1047.49 1714.58,1048.55 1714.22,1048.91Z" fill-rule="evenodd" fill="#D0CDCC"/>
<path d="M908.138,1592.95L1052.28,1447.89L1056.37,1452.02L1060.46,1456.15L1062.14,1452.97C1062.59,1451.22 1062.81,1448.21 1062.64,1446.48L1061.5,1443.5L1052.83,1443.21L1044.17,1442.92L1043.95,1439.86C1043.36,1438.17 1039.74,1431.55 1036.06,1425.69C1021.36,1402.33 1003.5,1359.45 1000.91,1341.3C1000.43,1337.95 998.957,1331.53 997.665,1327.17C995.355,1319.39 995.351,1318.77 995.351,1275.5L994.5,1231.5L997.997,1222C999.452,1216.78 1000.93,1210.6 1001.29,1208.12C1004.17,1188.32 1022.31,1145.99 1038.6,1121.04C1041.34,1116.84 1044.4,1110.74 1045.27,1107.77C1046.62,1103.09 1046.48,1102.93 1048.86,1102.66C1050.09,1102.52 1047.74,1097.45 1028.46,1077.73C1009.17,1058.01 973.444,1022.18 908.963,957.649C820.437,869.054 764.506,814.155 763.355,814.164C762.331,814.172 760.119,814.851 758.956,815.53C757.794,816.21 755.068,817.742 752.877,818.948C748.197,821.524 741.372,828.417 734.585,837.49C731.91,841.065 726.835,847.611 723.287,852.062C713.437,864.416 696.726,888.461 686.113,905.551C672.418,927.606 665.239,940.338 654.218,962.116C566.136,1136.18 555.401,1337.12 624.27,1522.8C633.445,1547.53 650.864,1585.85 662.218,1606.27C684.209,1645.82 705.008,1677.26 729.868,1708.53C747.202,1730.33 750.336,1732.85 757.503,1732.85C762.502,1732.85 762.161,1732.25 762.27,1734.29C762.316,1735.17 771.919,1728.18 794.066,1706.42C816.214,1684.67 852.135,1648.88 908.138,1592.95Z" fill-rule="evenodd" fill="#D0CDCC"/>
<path d="M761.432,1735.45C762.119,1735.73 763.851,1734.45 763.851,1733.58C763.851,1732.96 762.948,1731.74 762.117,1731.5C761.287,1731.27 759.677,1731.15 757.503,1731.15C750.336,1731.15 748.534,1729.27 731.2,1707.47C695.37,1662.4 663.908,1610.72 641.588,1560.28C630.62,1535.49 624.99,1520.99 616.531,1495.73C558.023,1321.03 572.234,1127.9 655.737,962.884C666.757,941.106 673.863,928.503 687.559,906.449C698.171,889.359 714.767,865.477 724.617,853.123C728.165,848.672 733.273,842.085 735.947,838.51C742.791,829.361 749.055,822.968 753.47,820.715C755.55,819.654 757.849,818.054 758.167,817.538C758.486,817.023 759.55,816.689 761.194,816.328C764.654,815.568 765.279,813.321 762.742,811.024C760.294,808.809 757.887,809.225 756.709,811.885C756.166,813.111 753.239,815.689 749.847,818.047C746.456,820.405 741.45,825.084 738.944,828.237C736.437,831.391 730.321,839.064 725.35,845.291C720.379,851.518 714.399,859.449 712.111,862.847C709.823,866.245 706.12,871.465 703.852,874.49C696.342,884.506 677.029,914.989 669.26,929.089C667.442,932.389 663.722,939.065 660.989,943.931C631.884,995.761 600.536,1082.83 591.167,1137.86C590.558,1141.43 589.387,1147.7 588.557,1151.82C586.439,1162.34 583.123,1185.54 581.68,1199.92C581.377,1202.94 580.687,1209.46 580.146,1214.41C576.765,1245.36 576.766,1312.27 580.147,1340.1C581.878,1354.36 583.143,1365.31 583.725,1371.09C584.735,1381.12 590.26,1412.46 593.618,1427.19C602.217,1464.91 616.893,1512.19 628.008,1537.98C629.633,1541.75 633.336,1550.46 636.24,1557.33C645.776,1579.91 668.503,1623.3 681.04,1642.86C696.022,1666.24 709.853,1686.28 719.106,1698.03C721.705,1701.32 727.741,1709.02 732.521,1715.14C744.441,1730.38 749.902,1734.83 755.876,1734.93C758.411,1734.97 760.744,1735.17 761.432,1735.45Z" fill-rule="evenodd" fill="#CEDFCD"/>
<path d="M1004.32,1724.6C1004.9,1724.76 1007.23,1723.56 1008.48,1722.23C1010.23,1720.37 1010.66,1717.53 1008.66,1714.29C1006.66,1711.06 1002.21,1706.25 994.64,1698.71C982.178,1686.3 980.346,1685.39 977.881,1686.33C973.551,1687.97 971.148,1690.59 972.258,1693.63C973.368,1696.67 977.694,1701.53 985.425,1709.19C997.066,1720.73 1000.7,1723.62 1004.32,1724.6Z" fill-rule="evenodd" fill="#9A9796"/>
<path d="M1278.5,1558.35C1318.79,1558.35 1319.89,1558.27 1327.26,1555.95C1331.38,1554.66 1337.46,1553.22 1340.93,1552.73C1360.21,1549.99 1407.02,1530.56 1427.47,1516.79C1431.6,1514.02 1438.31,1510.42 1442.57,1508.7C1449.16,1506.03 1450.85,1504.42 1450.85,1502.42C1450.85,1501.58 1450.54,1500.48 1450.3,1500.2C1450.06,1499.91 1448.73,1499.64 1448.2,1499.84C1447.37,1500.16 1446.15,1501.6 1446.15,1502.07C1446.15,1502.54 1443.15,1503.82 1438.88,1505.86C1434.62,1507.89 1428.3,1511.55 1424.99,1513.89C1419.61,1517.7 1398.64,1528.69 1386.66,1533.98C1372.06,1540.42 1350.6,1547.31 1339.2,1549.21C1335.44,1549.84 1329.31,1551.33 1325.74,1552.49C1316.61,1555.45 1245.46,1556.35 1233.18,1553.66C1229.06,1552.76 1220.5,1550.95 1214.17,1549.63C1189.68,1544.54 1155.69,1531.19 1134.44,1518.3C1128.12,1514.46 1119.69,1509.54 1115.99,1507.46L1109.01,1504.5L1109.84,1498.5C1109.83,1495.2 1109.25,1491.36 1108.71,1490.54C1108.38,1490.02 1106.58,1490.71 1106.42,1491.95C1106.26,1493.19 1106.17,1495.44 1106.16,1498.54L1107,1507.59L1110.47,1508.74C1112.85,1509.38 1117.61,1512.25 1120.6,1514.26C1128.45,1519.56 1143.27,1528.13 1149.64,1531.07C1170.4,1540.64 1178.97,1544.02 1194.25,1548.7C1199.75,1550.38 1207.28,1552.28 1210.86,1552.88C1214.43,1553.48 1220.11,1554.81 1223.61,1555.88C1231.81,1558.38 1230.63,1558.35 1278.5,1558.35Z" fill-rule="evenodd" fill="#CEDFCD"/>
<path d="M1278.5,1556.35C1316.61,1556.35 1319.08,1556.21 1325.75,1554.16C1329.6,1552.98 1335.72,1551.52 1339.48,1550.89C1350.9,1548.98 1372.77,1541.97 1387.34,1535.53C1399.49,1530.17 1420.61,1519.07 1425.99,1515.23C1429.31,1512.86 1434.81,1509.66 1438.37,1508.03C1444.82,1505.07 1449.83,1501.09 1449.87,1499.41C1449.89,1498.92 1460.92,1487.8 1474.96,1473.79L1500.11,1447.56L1501.77,1450.78C1503.79,1453.35 1506.62,1455.09 1507.71,1454.52C1508.8,1453.95 1509.85,1451.08 1509.85,1447.47C1509.85,1445.38 1508.79,1443.01 1507.77,1442.44C1506.59,1441.78 1506.71,1441.71 1507.83,1439.03C1508.95,1436.35 1511.37,1432.24 1515.68,1425.4C1531.87,1399.67 1547.86,1360.46 1551.88,1336.64C1552.53,1332.79 1553.9,1326.58 1554.94,1322.74C1558.15,1310.83 1557.75,1240.99 1554.38,1227.77C1553.05,1222.53 1551.68,1215.89 1551.32,1212.88C1549.01,1193.61 1528.52,1145.01 1512.87,1121.7C1508.35,1114.98 1505.85,1109.1 1505.85,1104.98C1505.85,1102.4 1504.64,1101.15 1502.26,1101.12C1498.25,1101.09 1449.85,1052.65 1449.85,1048.67C1449.85,1046.4 1448.57,1045.15 1446.15,1045.15C1441.44,1045.15 1437.54,1043.3 1424.97,1035.43C1411.54,1027.01 1384.11,1013.81 1382.56,1014.77C1382.01,1015.11 1382.85,1015.61 1382.85,1015C1382.85,1014.39 1381.14,1013.41 1380.64,1013.72C1380.14,1014.03 1380.8,1014.33 1380.62,1013.9C1379.73,1011.85 1348.97,1001.73 1336.82,999.621C1332.32,998.839 1326.28,997.457 1323.25,996.517C1313.86,993.597 1238.28,993.862 1227.28,996.855C1222.88,998.052 1216.43,999.525 1212.85,1000.15C1190.3,1004.09 1151.81,1019.69 1127.79,1034.64C1119.77,1039.63 1115.25,1042.33 1112.43,1043.55C1109.6,1044.77 1109.63,1044.75 1108.83,1043.57C1107.92,1042.2 1105.67,1041.15 1103.46,1041.15C1099.88,1041.15 1097.03,1042.21 1096.48,1043.3C1095.92,1044.39 1097.35,1047.16 1099.91,1049.17L1103.44,1050.89L1077.12,1076.42C1063.11,1090.46 1052.1,1101.11 1051.65,1101.13C1050.05,1101.17 1047.51,1104.26 1044.01,1111.65C1042.06,1115.77 1038.42,1122.18 1035.85,1126.03C1023.03,1145.2 1002.78,1193.92 1000.77,1210.4C1000.43,1213.15 999.038,1219.79 997.647,1225.29C993.828,1240.39 993.794,1309.88 997.599,1325.69C998.924,1331.2 1000.31,1337.66 1000.69,1340.13C1003.95,1361.09 1021.88,1403.18 1038.75,1429.46C1041.04,1433.03 1043.43,1437.28 1044.15,1439.07C1045.42,1442.22 1046.41,1442.85 1052.19,1442.85C1061.37,1442.85 1061.55,1442.74 1060.78,1450.27L1060.98,1456.67L1077.66,1473.34L1094.33,1490.02L1101.41,1489.38C1108.92,1488.61 1108.15,1489.64 1108.16,1498.69L1109.01,1504.5L1114.91,1508.28C1118.61,1510.35 1127.23,1515.92 1133.56,1519.75C1139.88,1523.59 1151.71,1529.67 1159.71,1533.2C1183.61,1543.74 1200.03,1548.7 1232.33,1555.14C1236.39,1555.95 1251.48,1556.35 1278.5,1556.35ZM1196.5,1417.65L1165.5,1418.5L1162.02,1415.56C1159.64,1413.95 1155.91,1409.88 1154.17,1407.37L1150.5,1403.5L1150.82,1343C1150.53,1309.72 1149.78,1281.71 1149.66,1281.64C1149.54,1281.57 1147.93,1280.35 1145.99,1278.87C1143.59,1277.04 1139.97,1275.69 1135.46,1274.99C1130.81,1274.26 1127.34,1272.96 1123.05,1270.33C1116.95,1266.59 1117.35,1267.38 1117.7,1263.08C1117.89,1260.71 1118.26,1258.74 1118.75,1258.13C1119.23,1257.53 1120.83,1255.54 1122.29,1253.72C1123.75,1251.89 1135.69,1241.21 1148.95,1229.83C1162.21,1218.46 1174.01,1208.16 1175.11,1207.02C1176.78,1205.29 1191.25,1192.8 1203.05,1182.92C1207.72,1179 1222.01,1166.31 1223.13,1165.09C1224.44,1163.65 1243.77,1147.14 1249.59,1142.49C1252.1,1140.49 1255.34,1137.57 1256.68,1136.12C1259.31,1133.28 1270.94,1126.85 1273.51,1126.85C1276.48,1126.85 1284.79,1131.87 1292.24,1138C1306.84,1150.02 1319.48,1161.07 1329.38,1170.48C1331.32,1172.32 1336.27,1176.63 1340.33,1180.01C1355.26,1192.45 1355.14,1192.34 1383.43,1217.72C1387.56,1221.41 1393.22,1226.24 1395.97,1228.41C1404.07,1234.77 1423.71,1253.02 1426.78,1257.05C1428.57,1259.4 1429.48,1261.59 1429.55,1263.83C1429.64,1267.19 1429.72,1266.83 1423.58,1270.36C1419.32,1272.81 1415.5,1274.23 1411.9,1274.67C1404.08,1275.64 1398.05,1279.45 1396.12,1284.47C1395.63,1285.72 1395.16,1313.19 1395.13,1345.13C1395.08,1409.23 1395.72,1404.9 1388.75,1411.52C1381.42,1418.48 1382.6,1418.15 1347.29,1418.15L1315.47,1419L1311.31,1415.62C1308.55,1413.76 1304.6,1409.63 1302.97,1407.27L1299.5,1403.68L1299.85,1373.42C1299.58,1356.78 1298.82,1342.28 1298.49,1341.95C1297.78,1341.24 1283.62,1340.35 1263.68,1340.07C1252.24,1339.91 1248.96,1340.4 1247.66,1341.71C1246.3,1343.07 1245.86,1347.4 1246.04,1370.2C1246.26,1398.59 1246.13,1400.08 1240.86,1408.42C1238.29,1412.49 1232.56,1416.93 1229.15,1417.41C1228.18,1417.55 1213.55,1417.65 1196.5,1417.65Z" fill-rule="evenodd" fill="#EFECEB"/>
<path d="M1051.01,1442.58C1054.69,1442.61 1057.63,1443.45 1057.76,1443.41C1057.89,1443.37 1056.1,1441.61 1052.9,1441.43C1046.49,1441.08 1046.95,1441.49 1045.71,1438.39C1045.01,1436.63 1042.48,1432.12 1040.18,1428.54C1023.31,1402.26 1005.64,1360.83 1002.38,1339.87C1001.99,1337.39 1000.58,1330.8 999.253,1325.29C995.448,1309.49 995.477,1240.81 999.297,1225.71C1000.69,1220.21 1002.12,1213.35 1002.46,1210.6C1004.52,1193.75 1024.19,1146.81 1038.02,1125.71C1040.99,1121.16 1044.77,1114.4 1046.32,1110.83C1047.88,1107.26 1048.74,1104.85 1049.18,1104.85C1049.63,1104.85 1050.85,1103.55 1050.85,1103C1050.85,1102.45 1049.11,1101.15 1048.03,1101.15C1046.5,1101.15 1044.88,1102.99 1043.65,1107.23C1042.78,1110.23 1039.92,1115.91 1037.17,1120.11C1020.89,1145.06 1002.48,1188.08 999.604,1207.88C999.245,1210.35 997.858,1216.36 996.403,1221.59L994.5,1231.5L993.649,1275.5C993.649,1318.77 993.724,1319.87 996.033,1327.66C997.325,1332.01 998.746,1338.19 999.223,1341.54C1001.79,1359.5 1020.01,1403.46 1034.24,1425.95C1037.72,1431.45 1041.29,1437.62 1042.1,1439.55L1044.22,1442.5L1051.01,1442.58Z" fill-rule="evenodd" fill="#CEDFCD"/>
<path d="M1506.35,1443.51C1506.59,1443.59 1508.06,1442.75 1508.69,1441.85C1509.32,1440.95 1510.12,1439.56 1510.83,1438.12C1512.24,1435.23 1515.85,1428.9 1518.9,1423.95C1534.2,1399.11 1548.59,1364.57 1552.35,1343.67C1553.04,1339.81 1554.65,1332.9 1555.95,1328.23C1559.58,1315.2 1559.62,1234.97 1556.01,1224.72C1554.75,1221.14 1553.32,1215.25 1552.78,1211.43C1551.9,1205.22 1550.6,1200.45 1545.46,1184.74C1539.09,1165.24 1528.73,1143.34 1517.24,1125.08C1509.58,1112.92 1507.99,1109.38 1507.82,1103.48C1507.72,1099.95 1507.24,1097.37 1506.63,1096.6C1506.02,1095.84 1503.98,1096.18 1502.63,1097.89L1500.8,1101.5L1502.05,1101.82C1503.63,1102.06 1504.15,1102.86 1504.15,1105.05C1504.15,1109.1 1506.96,1115.96 1511.45,1122.65C1527.11,1145.96 1547.32,1193.81 1549.63,1213.08C1549.99,1216.09 1551.4,1222.95 1552.73,1228.19C1556.1,1241.41 1556.51,1310.38 1553.29,1322.3C1552.26,1326.14 1550.86,1332.51 1550.21,1336.36C1546.18,1360.19 1530.43,1398.76 1514.22,1424.52C1510.55,1430.36 1508.02,1434.75 1506.65,1437.65C1505.29,1440.56 1505.54,1443.24 1506.35,1443.51Z" fill-rule="evenodd" fill="#CEDFCD"/>
<path d="M1199,1419.35L1230.5,1418.5L1235.77,1415.5C1238.21,1413.85 1241.19,1411.04 1242.78,1408.44L1245.13,1403.06L1245.89,1379.48C1245.83,1364.71 1246.14,1355.23 1247.08,1349.3C1248.02,1343.37 1248.73,1341.85 1251.12,1341.85C1252.16,1341.85 1253.85,1340.55 1253.85,1340C1253.85,1339.68 1254.79,1340.28 1258.02,1340.11C1261.26,1339.94 1265.95,1339.85 1271.92,1339.85C1290.68,1339.85 1292.18,1340 1297.53,1343.54C1297.81,1343.72 1297.87,1356.81 1298.15,1373.45L1299.5,1403.68L1301.62,1407.96C1303.25,1410.32 1307.43,1414.57 1310.19,1416.43L1315.47,1419L1347.29,1419C1382.6,1419 1382.59,1419.71 1389.92,1412.76C1396.89,1406.14 1396.78,1409.23 1396.83,1345.14C1396.86,1313.19 1397.22,1286.33 1397.7,1285.08C1399.64,1280.07 1404.29,1277.33 1412.1,1276.36C1415.7,1275.91 1420.17,1274.28 1424.42,1271.83C1429.88,1268.7 1432.6,1265.1 1431.05,1260.99C1429.49,1256.89 1423.81,1250.92 1413.63,1241.61C1407.28,1235.8 1399.78,1229.23 1397.03,1227.07C1394.28,1224.91 1388.69,1220.15 1384.57,1216.45C1356.28,1191.08 1356.35,1191.14 1341.42,1178.71C1337.36,1175.33 1332.5,1171.09 1330.55,1169.24C1320.65,1159.83 1307.93,1148.71 1293.32,1136.68C1285.87,1130.55 1276.48,1125.15 1273.51,1125.15C1270.94,1125.15 1258.06,1132.12 1255.43,1134.96C1254.09,1136.41 1251.03,1139.16 1248.53,1141.16C1242.71,1145.82 1223.19,1162.5 1221.87,1163.94C1220.76,1165.16 1206.63,1177.69 1201.95,1181.61C1190.16,1191.5 1175.56,1204.11 1173.89,1205.84C1172.79,1206.98 1161.1,1217.16 1147.84,1228.54C1134.58,1239.92 1122.43,1250.83 1120.96,1252.65C1119.5,1254.48 1117.91,1256.46 1117.42,1257.07C1116.94,1257.67 1116.2,1260.57 1116,1262.94C1115.65,1267.24 1116.06,1268.04 1122.16,1271.78C1126.45,1274.41 1130.55,1275.95 1135.2,1276.67C1139.71,1277.37 1142.56,1278.39 1144.96,1280.22C1146.9,1281.7 1148.66,1283.03 1148.78,1283.1C1148.9,1283.17 1148.83,1309.74 1149.12,1343.01L1150.5,1403.5L1152.58,1407.83C1155.36,1411.92 1163.12,1418.54 1166.02,1419.09C1166.75,1419.22 1181.67,1419.35 1199,1419.35ZM1197.5,1405.65C1182.1,1405.65 1168.51,1405.34 1167.02,1404.92C1164.75,1404.29 1164.18,1404.04 1163.55,1395.76C1162.93,1387.48 1162.88,1371.99 1162.87,1342.23L1162,1286.91L1159.94,1280.71C1156.08,1272.46 1153.44,1269.91 1141.74,1265.13C1136.28,1262.91 1131.68,1260.86 1131.17,1260.36C1130.56,1259.75 1130.88,1259.98 1132.52,1258.22C1134.15,1256.46 1137.04,1253.98 1141.78,1250.16C1148.37,1244.85 1156.09,1238.05 1169.63,1225.63C1178.05,1217.9 1180.89,1215.46 1189.53,1208.51C1194.76,1204.31 1200.67,1199.29 1202.59,1197.42C1205.64,1194.46 1215.33,1185.78 1225.06,1177.31C1226.71,1175.87 1233.22,1170.33 1239.55,1165C1245.87,1159.66 1252.03,1154.31 1253.17,1153.17C1267.52,1138.75 1274.44,1135.76 1281.42,1142.23C1291.49,1151.55 1295.07,1154.68 1303.47,1161.46C1308.69,1165.68 1314.02,1170.2 1315.4,1171.57C1316.77,1172.95 1321.55,1177.21 1325.95,1180.98C1330.35,1184.75 1334.29,1188.28 1334.84,1188.97C1335.89,1190.28 1349.09,1201.69 1356.48,1207.66C1358.87,1209.59 1361.69,1212.01 1362.82,1213.11C1363.95,1214.21 1368.74,1218.48 1373.43,1222.56C1378.11,1226.65 1382.29,1230.44 1382.84,1231.12C1383.8,1232.3 1395.56,1242.35 1404.56,1249.66C1412.55,1256.15 1416.15,1259.23 1416.15,1260.37C1416.15,1260.99 1411.97,1262.51 1406.18,1264.71C1396.36,1268.44 1388.15,1274.35 1388.15,1277.17C1388.15,1277.69 1387.22,1279.85 1385.98,1282.44C1383.75,1287.1 1383.65,1287.92 1383.15,1345.21C1382.68,1398.88 1382.77,1402.45 1381.11,1404.11C1379.48,1405.75 1377.36,1405.65 1349.22,1405.65C1332.32,1405.65 1317.51,1405.34 1316.02,1404.92C1311.84,1403.75 1311.86,1400.35 1311.86,1372.21L1311,1346.92L1308.92,1340.64C1306.79,1336.09 1304.25,1332.75 1301.18,1330.63L1296.68,1328.5L1274.61,1328.2C1247.14,1327.83 1243.97,1327.65 1237.7,1337.18L1234.5,1343.5L1233.15,1373.33C1232.68,1401.39 1232.88,1402.56 1231.06,1403.9C1228.41,1405.83 1229.15,1405.65 1197.5,1405.65Z" fill-rule="evenodd" fill="#72B973"/>
<path d="M1195.99,1407.63C1222.97,1407.96 1229.08,1407.45 1232.12,1405.23C1233.87,1403.95 1234.39,1401.11 1234.85,1373.36L1234.5,1343.5L1239.06,1337.86C1245.33,1328.33 1246.29,1328.68 1273.76,1329.05L1296.68,1328.5L1300.05,1331.43C1303.12,1333.56 1305.32,1336.67 1307.44,1341.22L1311,1346.92L1310.15,1372.21C1310.16,1400.35 1311.38,1405.39 1315.57,1406.56C1317.05,1406.98 1332.32,1407.35 1349.22,1407.35C1377.36,1407.35 1380.68,1406.95 1382.32,1405.32C1383.98,1403.66 1384.39,1398.9 1384.85,1345.22C1385.35,1287.93 1385.28,1287.83 1387.52,1283.17C1388.75,1280.59 1389.85,1277.69 1389.85,1277.17C1389.85,1274.35 1396.97,1270.03 1406.79,1266.3C1412.57,1264.1 1417.85,1260.99 1417.85,1260.37C1417.85,1259.23 1413.62,1254.83 1405.63,1248.34C1396.63,1241.03 1385.12,1231.23 1384.16,1230.04C1383.61,1229.37 1379.23,1225.37 1374.54,1221.28C1369.86,1217.2 1365.14,1212.99 1364,1211.89C1362.87,1210.79 1359.94,1208.26 1357.55,1206.34C1350.15,1200.36 1337.21,1189.22 1336.16,1187.9C1335.61,1187.22 1331.45,1183.46 1327.05,1179.69C1322.65,1175.92 1317.98,1171.75 1316.6,1170.37C1315.23,1168.99 1309.76,1164.35 1304.53,1160.14C1296.14,1153.35 1292.64,1150.31 1282.58,1140.98C1275.6,1134.51 1266.32,1137.55 1251.96,1151.97C1250.83,1153.11 1244.78,1158.36 1238.45,1163.7C1232.13,1169.03 1225.59,1174.59 1223.94,1176.02C1214.22,1184.5 1204.45,1193.24 1201.41,1196.2C1199.48,1198.07 1193.69,1202.99 1188.47,1207.19C1179.83,1214.13 1176.9,1216.65 1168.48,1224.37C1154.93,1236.8 1147.3,1243.52 1140.71,1248.84C1135.97,1252.66 1132.91,1255.3 1131.27,1257.06C1129.63,1258.82 1129.36,1260.96 1129.98,1261.57C1130.49,1262.07 1135.64,1264.49 1141.1,1266.71C1152.8,1271.48 1154.6,1273.04 1158.47,1281.29L1162,1286.91L1161.17,1342.28C1161.18,1396.25 1161.94,1404.08 1164.78,1405.88C1166.68,1407.09 1168.41,1407.29 1195.99,1407.63Z" fill-rule="evenodd" fill="#CEDFCD"/>
<path d="M1246.71,1399.07C1247.98,1397.67 1247.71,1353.56 1246.45,1352.78C1246.12,1352.57 1244.58,1355.11 1244.43,1358.92C1244.27,1362.73 1244.21,1368.54 1244.24,1376.19C1244.27,1383.16 1244.38,1388.92 1244.55,1392.83C1244.73,1396.74 1246.44,1399.37 1246.71,1399.07Z" fill-rule="evenodd" fill="#CEDFCD"/>
<path d="M1288.29,1342.59C1290.12,1342.73 1291.55,1342.73 1292.24,1342.59C1292.92,1342.44 1293.74,1341.04 1293.58,1340.54C1293.24,1339.53 1287.78,1338.59 1272.43,1338.4C1265.78,1338.32 1260.88,1338.34 1257.81,1338.46C1254.74,1338.58 1253.03,1340.37 1253.53,1340.7C1254.36,1341.24 1261.79,1341.91 1269.49,1342.02C1277.19,1342.12 1285.62,1342.38 1288.29,1342.59Z" fill-rule="evenodd" fill="#CEDFCD"/>
<path d="M300.531,1334.94C310.238,1334.59 312.248,1333.19 319.811,1320.52C327.426,1307.77 329.159,1304.85 330.971,1304.85C332.88,1304.85 337.301,1309.59 339.697,1313.91C340.612,1315.56 342.824,1319.24 344.583,1322.03C353.173,1335.67 351.797,1334.72 364.682,1334.99C370.379,1335.11 374.023,1334.86 375.532,1334.01C377.042,1333.17 377.221,1330.55 376.115,1327.87C375.279,1325.84 373.577,1322.99 372.529,1321.86C371.482,1320.72 370.851,1320.01 370.851,1319.57C370.851,1319.13 369.111,1316.12 367.186,1313.5C365.261,1310.87 363.851,1308.81 363.851,1308.29C363.851,1307.77 362.457,1305.67 361.082,1304.38C359.707,1303.09 358.851,1302.14 358.851,1301.52C358.851,1300.9 357.589,1298.4 356.251,1296.58C354.912,1294.77 352.59,1290.84 351.183,1287.97L348.018,1283.34L351.482,1277.92C352.919,1274.94 354.966,1271.78 356.273,1270.22C357.581,1268.67 358.851,1266.38 358.851,1265.81C358.851,1265.23 359.886,1263.86 361.398,1262.08C364.012,1259.01 366.177,1255.73 369.897,1249.19C370.808,1247.59 372.117,1245.67 372.927,1244.74C376.282,1240.91 377.651,1237.02 376.815,1235.02C375.979,1233.03 372.267,1231.51 367.381,1231.69C364.13,1231.8 359.797,1231.96 357.749,1232.02C354.334,1232.14 353.011,1233.05 349.315,1238.74C347.099,1242.14 345.149,1245.95 345.149,1246.62C345.149,1247.3 344.276,1248.57 342.963,1250.13C341.651,1251.69 339.739,1254.88 338.878,1256.94C337.418,1260.43 335.043,1262.15 331.577,1262.15C330.867,1262.15 328.86,1258.86 326.219,1254.32C312.641,1230.99 313.665,1232.15 301.268,1232.15C295.277,1232.15 290.981,1232.63 288.942,1233.51C286.904,1234.39 286.494,1237.08 288.187,1238.93C289.265,1240.11 290.991,1242.7 292.171,1244.9C293.352,1247.1 295.581,1250.81 297.075,1253.06C301.334,1259.48 303.881,1263.54 306.937,1268.78C308.493,1271.44 310.79,1274.92 311.956,1276.38C313.122,1277.84 314.207,1280.05 314.571,1281.71C315.223,1284.71 315.068,1284.67 308.492,1295.04C307.795,1296.14 306.441,1298.33 305.494,1299.89C304.548,1301.45 301.542,1306.08 298.792,1310.21C296.042,1314.34 293.13,1319 292.381,1320.46C291.632,1321.92 289.943,1324.7 288.565,1326.75C286.379,1330 285.907,1333.04 287.489,1334.01C289.072,1334.97 293.446,1335.19 300.531,1334.94Z" fill-rule="evenodd" fill="#363D3D"/>
<path d="M2214.53,1334.94C2223.41,1334.62 2226.87,1332.58 2230.88,1325.42C2232.75,1322.09 2236.4,1316.17 2241.56,1308.12C2242.86,1306.11 2243.96,1304.85 2244.9,1304.85C2246.87,1304.85 2251.27,1309.53 2253.7,1313.91C2254.61,1315.56 2256.82,1319.24 2258.58,1322.03C2267.17,1335.67 2265.8,1334.72 2278.68,1334.99C2284.38,1335.11 2288.02,1334.86 2289.53,1334.01C2291.04,1333.17 2291.22,1330.55 2290.11,1327.87C2289.28,1325.84 2287.58,1322.99 2286.53,1321.86C2285.48,1320.72 2284.85,1320.01 2284.85,1319.57C2284.85,1319.13 2283.11,1316.12 2281.19,1313.5C2279.26,1310.87 2277.85,1308.81 2277.85,1308.29C2277.85,1307.77 2276.46,1305.67 2275.08,1304.38C2273.71,1303.09 2272.85,1302.09 2272.85,1301.4C2272.85,1300.72 2271.62,1298.34 2270.35,1296.79C2269.08,1295.23 2266.79,1291.4 2265.31,1288.33L2262.02,1283.34L2265.48,1277.92C2266.92,1274.94 2268.97,1271.78 2270.27,1270.22C2271.58,1268.67 2272.85,1266.38 2272.85,1265.81C2272.85,1265.23 2273.89,1263.86 2275.4,1262.08C2278.01,1259.01 2280.18,1255.73 2283.9,1249.19C2284.81,1247.59 2286.12,1245.67 2286.93,1244.74C2290.2,1241.01 2291.59,1237.21 2290.85,1235.23C2290.12,1233.25 2286.6,1231.67 2281.98,1231.77C2266.81,1232.1 2267.77,1231.87 2263.31,1238.74C2261.1,1242.14 2259.15,1245.95 2259.15,1246.62C2259.15,1247.3 2258.28,1248.57 2256.96,1250.13C2255.65,1251.69 2253.74,1254.88 2252.88,1256.94C2251.42,1260.43 2249.04,1262.15 2245.58,1262.15C2244.87,1262.15 2242.86,1258.86 2240.22,1254.32C2226.64,1230.99 2227.67,1232.15 2215.27,1232.15C2209.28,1232.15 2204.98,1232.63 2202.94,1233.51C2200.9,1234.39 2200.49,1237.08 2202.19,1238.93C2203.26,1240.11 2204.99,1242.7 2206.17,1244.9C2207.35,1247.1 2209.58,1250.81 2211.08,1253.06C2215.33,1259.48 2217.88,1263.54 2220.94,1268.78C2222.49,1271.44 2224.91,1275.06 2226.22,1276.68C2229.59,1280.86 2229.52,1285.06 2226.05,1289.6C2224.55,1291.56 2223.15,1293.97 2223.15,1294.32C2223.15,1294.66 2222,1296.39 2220.41,1298.75C2212.2,1310.92 2207.61,1318.04 2206.38,1320.44C2205.63,1321.91 2203.94,1324.7 2202.56,1326.75C2200.38,1330 2199.91,1333.04 2201.49,1334.01C2203.07,1334.97 2207.45,1335.19 2214.53,1334.94Z" fill-rule="evenodd" fill="#363D3D"/>
<path d="M254.997,1303.93C264.072,1303.96 272.927,1303.95 274.649,1303.92C277.527,1303.86 278.683,1302.83 279.765,1298.53C281.098,1293.24 280.139,1286.08 277.939,1283.88C276.729,1282.67 272.139,1282.15 255.485,1282.15C231.911,1282.15 231.149,1282.96 231.149,1292.66C231.149,1299.67 233.352,1303.85 236.221,1303.86C237.472,1303.87 245.922,1303.9 254.997,1303.93Z" fill-rule="evenodd" fill="#363D3D"/>
<path d="M1727.23,1116.25C1727.71,1116.19 1728.85,1116.08 1729.79,1116C1732.59,1115.75 1794.62,1053.37 1795.89,1049.5C1797.36,1045.06 1794.12,1040.32 1788.05,1037.76C1781.99,1035.2 1772.29,1033.71 1760.57,1033.82C1757.2,1033.85 1754.12,1034.95 1752.92,1036.22C1751.71,1037.49 1751.76,1040.36 1753.43,1042.13C1754.64,1043.43 1757.8,1044.9 1760.21,1045.26C1766.22,1046.17 1774.15,1049.55 1774.15,1051.59C1774.15,1052.51 1762.91,1064.07 1748.86,1078C1734.84,1091.92 1727.23,1099.66 1723.75,1104.32C1720.27,1108.98 1720.94,1111.79 1723.1,1113.76C1724.53,1115.06 1726.76,1116.3 1727.23,1116.25Z" fill-rule="evenodd" fill="#9A9796"/>
<path d="M1450.49,1049.99C1451.17,1049.81 1452.89,1048.74 1453.88,1047.84C1455,1046.84 1454.99,1044.72 1454.11,1044.2C1453.24,1043.68 1450.94,1043.28 1448.02,1043.21C1441.98,1043.08 1438.28,1041.51 1427.45,1034.7C1402.52,1019.01 1358.98,1001.15 1338.45,998.185C1335.24,997.722 1329.36,996.388 1325.24,995.189C1311.18,991.106 1234.66,991.451 1222.84,995.647C1220.43,996.502 1215.63,997.616 1211.99,998.169C1189.91,1001.53 1146.8,1019.42 1123.21,1035.03C1119.46,1037.51 1114.42,1040.48 1111.9,1041.7C1110.63,1042.31 1109.44,1043.04 1108.79,1043.55C1108.15,1044.07 1107.97,1045.87 1108.26,1046.04C1109.44,1046.77 1116.83,1043.46 1128.69,1036.08C1152.71,1021.13 1190.59,1005.77 1213.15,1001.83C1216.72,1001.2 1223.32,999.694 1227.72,998.497C1238.73,995.504 1313.36,995.222 1322.75,998.141C1325.77,999.082 1332.03,1000.52 1336.53,1001.3C1348.68,1003.41 1378.17,1012.52 1379.05,1014.57C1379.24,1015 1381.03,1015.48 1381.53,1015.17C1382.04,1014.86 1381.15,1014.39 1381.15,1015C1381.15,1015.61 1382.9,1016.56 1383.46,1016.22C1385,1015.26 1410.63,1028.46 1424.07,1036.87C1436.64,1044.74 1441.44,1046.85 1446.15,1046.85C1448.19,1046.85 1448.16,1046.51 1448.17,1047.76C1448.18,1048.72 1449.82,1050.17 1450.49,1049.99Z" fill-rule="evenodd" fill="#CEDFCD"/>
<path d="M1713.22,1050.37C1713.8,1050.62 1716.22,1049.58 1717.41,1048.3C1720.67,1044.83 1718.82,1039.64 1710.85,1031.82L1703.77,1026.01L1706.33,1023.39C1707.36,1021.81 1707.86,1019.46 1707.6,1017.65C1707.22,1015.1 1707.63,1014.71 1711.81,1010.76C1715.75,1007.04 1718.4,1003.55 1719.32,1000.98C1720.25,998.408 1719.32,995.423 1717.21,994.041C1713.81,991.813 1710.01,993.438 1700.29,1002.95C1695.54,1007.59 1691.68,1011.15 1690.97,1011.15C1690.27,1011.15 1686.59,1007.63 1682.07,1003.01C1672.97,993.726 1667.84,991.78 1664.32,994.964C1662.61,996.513 1662.02,999.253 1663.21,1001.78C1664.41,1004.3 1667.36,1007.84 1672.01,1012.5C1676.63,1017.12 1680.15,1020.96 1680.15,1021.78C1680.15,1022.59 1676.6,1026.54 1671.97,1031.28C1666.39,1037 1663.06,1041.68 1662.42,1044.54C1661.78,1047.39 1664.45,1049.85 1668.75,1049.85C1671.8,1049.85 1673.98,1048.51 1681.54,1041.11C1686.32,1036.43 1690.31,1032.85 1691.14,1032.85C1691.97,1032.85 1695.65,1036.16 1700.05,1040.49C1704.44,1044.83 1709.23,1048.89 1710.29,1049.26C1711.35,1049.63 1712.64,1050.12 1713.22,1050.37Z" fill-rule="evenodd" fill="#9A9796"/>
<path d="M1453.04,1045.51C1454.32,1045.85 1494.48,1006.89 1598.45,902.926C1736.44,764.954 1741.53,759.572 1742.07,755.466L1741.81,751L1737.51,750.989C1732.89,750.98 1731.74,750.005 1728.61,746.758C1720.38,738.215 1686.63,712.378 1663.97,697.279C1629.82,674.525 1587.7,651.463 1555.33,637.798C1549.01,635.128 1542.05,632.143 1539.85,631.156C1506.99,616.411 1433.31,595.514 1392.13,589.258C1384.7,588.13 1376.19,586.736 1373.16,586.153C1370.14,585.57 1355.2,583.948 1340.08,582.563C1223.08,571.848 1108.42,589.881 1000.67,635.942C980.818,644.427 943.87,662.589 937.356,667.057C934.971,668.694 930.193,671.444 926.618,673.241C903.737,684.743 838.802,730.926 823.07,746.884C820.62,749.369 818.377,751.156 817.354,751.163C812.712,751.197 810.149,753.187 810.149,756.231C810.149,758.521 881.378,831.227 952.731,902.56C1024.08,973.892 1096.81,1044.6 1098.3,1043.8C1100.84,1042.45 1105.69,1042.3 1107.05,1043.65C1107.74,1044.35 1109.88,1044.49 1112.16,1043.47C1114.44,1042.45 1117.92,1040.38 1122.96,1037.12C1148.89,1020.36 1189.81,1003.26 1212.25,999.851C1215.89,999.298 1220.99,998.105 1223.4,997.25C1230.75,994.643 1247,993.858 1283.04,994.277C1314.78,994.646 1317.85,994.815 1324.76,996.823C1328.89,998.021 1335,999.406 1338.2,999.869C1358.74,1002.84 1401.62,1020.45 1426.55,1036.14C1437.32,1042.91 1441.86,1044.75 1447.97,1044.96C1449.9,1045.03 1452.07,1045.26 1453.04,1045.51Z" fill-rule="evenodd" fill="#D0CDCC"/>
<path d="M2134.57,828.351C2144.03,828.351 2145.41,828.055 2151.46,824.913C2167.59,816.531 2179.61,804.699 2190.22,786.648L2193.49,779.5L2193.49,767.435L2193.5,755.371L2190.94,750.435C2186.51,744.026 2180.08,738.492 2174.88,737.072C2168.59,735.355 2151.29,736.668 2146.46,739.215C2144.34,740.333 2140.7,742.243 2138.38,743.461C2136.06,744.68 2129.21,750.569 2123.42,756.363C2107.28,772.51 2102.31,782.827 2102.76,798.87C2103.08,810.408 2103.99,813.021 2109.19,818.299C2118.43,827.687 2120.07,828.351 2134.57,828.351ZM2130.44,814.618C2126.23,814.617 2125.21,814.249 2121.75,811.51C2116.81,807.597 2116.29,805.223 2117.21,794.296C2118,784.979 2120.95,780.264 2133.53,767.605C2145.7,755.361 2151.04,751.979 2160.26,750.944C2170.96,749.744 2172.67,750.087 2177.35,755.164C2181.16,759.302 2181.15,759.287 2181.15,765.261C2181.15,779.535 2165.12,799.616 2144.4,811.566C2139.44,814.426 2138.46,814.621 2130.44,814.618Z" fill-rule="evenodd" fill="#9A9796"/>
<path d="M2133.67,816.201C2151.97,815.767 2182.85,783.788 2182.85,765.261C2182.85,759.287 2182.41,758.149 2178.6,754.011C2173.92,748.934 2170.77,748.054 2160.07,749.254C2154.06,749.928 2151.33,750.89 2146.69,753.942C2139.44,758.72 2124.77,773.46 2119.76,781.006C2115.89,786.843 2115.74,787.332 2115.7,797.749L2116.5,808.191L2119.65,811.58C2124.23,815.465 2125.39,816.397 2133.67,816.201Z" fill-rule="evenodd" fill="#EFECEB"/>
<path d="M2070.72,770.558C2072.74,770.94 2078.85,765.787 2106.69,737.996C2124.83,719.89 2134.03,710.67 2137.9,705.444C2141.78,700.219 2140.27,697.747 2137.41,695.239C2132.63,691.055 2129.93,690.15 2118.11,689.108C2112.31,688.597 2106.03,687.985 2104.11,687.743C2101.53,687.419 2099.01,688.103 2096.16,689.958C2094.25,691.2 2092.98,692.206 2092.73,692.769C2092.48,693.332 2093.12,694.766 2094.06,695.706C2095.22,696.867 2099.47,698.435 2104.22,699.345C2108.52,700.167 2112.97,701.596 2114.51,702.695C2116.05,703.794 2118.3,704.851 2118.9,704.851C2119.51,704.851 2119.15,704.675 2119.15,705.5C2119.15,706.325 2119.55,706.149 2118.99,706.149C2117.19,706.149 2064.47,758.651 2063.19,761.734C2061.92,764.8 2064.37,769.616 2067.3,769.98C2067.9,770.055 2069.41,770.311 2070.72,770.558Z" fill-rule="evenodd" fill="#9A9796"/>
<path d="M814.989,753.03C818.703,752.762 820.67,751.742 824.349,748.009C840.018,732.116 904.557,686.235 927.382,674.762C930.957,672.964 935.933,670.097 938.319,668.46C944.832,663.992 981.487,645.991 1001.33,637.506C1109.08,591.446 1222.93,573.542 1339.92,584.257C1355.05,585.642 1369.81,587.241 1372.84,587.824C1375.86,588.406 1384.45,589.812 1391.87,590.94C1409.38,593.599 1442.17,600.922 1463.77,606.995C1485.72,613.166 1526.92,627.218 1539.15,632.708C1541.35,633.695 1548.34,636.695 1554.67,639.366C1587.03,653.03 1628.87,675.941 1663.02,698.695C1685.68,713.794 1719.15,739.396 1727.39,747.938C1730.73,751.409 1731.8,751.825 1738.01,751.74C1741.25,751.696 1743.26,749.946 1742.95,749.538C1742.65,749.131 1740.04,748.367 1736.68,748.25C1734.7,748.18 1731.9,746.258 1726.21,741.414C1647.62,674.55 1543.81,621.545 1444.7,597.685C1438.65,596.228 1430.1,594.173 1425.7,593.119C1421.3,592.065 1412.47,590.305 1406.14,589.222C1399.82,588.14 1391.05,586.608 1386.65,585.818C1382.25,585.028 1375.66,584.069 1372.09,583.699C1368.51,583.329 1360.66,582.399 1354.61,581.629C1312.97,576.328 1253.88,576.16 1203.42,581.202C1111.3,590.407 1011.11,621.908 936.574,665.098C931.349,668.125 923.027,672.919 918.077,675.752C894.148,689.449 852.097,719.224 827.593,739.822C817.228,748.534 818.374,747.928 812.513,748.686C809.352,749.095 807.741,751.279 808.28,751.899C808.82,752.519 811.68,753.268 814.989,753.03Z" fill-rule="evenodd" fill="#CEDFCD"/>
<path d="M813.741,749.184C818.443,748.919 819.644,748.968 822.578,746.255C840.527,729.656 892.974,692.082 918.923,677.229C923.873,674.395 932.201,669.597 937.426,666.57C989.384,636.462 1062.31,608.925 1127.37,594.84C1198.6,579.42 1288.08,574.876 1354.39,583.316C1360.44,584.086 1368.34,585.021 1371.91,585.391C1375.49,585.762 1381.95,586.702 1386.35,587.493C1390.75,588.283 1399.53,589.817 1405.86,590.899C1412.18,591.982 1420.9,593.719 1425.3,594.774C1429.7,595.828 1438.25,597.882 1444.3,599.339C1543.34,623.182 1645.97,675.558 1724.95,742.559C1732.01,748.545 1734.08,749.629 1738.81,750.247L1744.23,750.099L1763.05,732.05C1772.93,722.122 1780.61,714.851 1781.16,714.851C1782.63,714.851 1794.85,702.895 1794.85,701.454C1794.85,700.014 1844.76,649.851 1846.19,649.851C1847.9,649.851 1859.56,638.289 1860.8,635.298C1861.46,633.7 1862.38,632.588 1863.5,632.234C1866.69,631.22 1889.12,609.53 1890.61,606.005C1891.82,603.147 1894.45,600.724 1904.14,593.148C1905.86,591.808 1908.07,589.046 1908.74,587.432C1909.42,585.795 1910.8,584.42 1912.43,583.742C1915.31,582.551 1920.85,576.694 1920.85,574.98C1920.85,573.818 1971,523.851 1972.17,523.851C1973.65,523.851 1983.8,514.197 1985.31,511.281C1986.85,508.316 2035.83,458.851 2037.25,458.851C2038.91,458.851 2050.58,447.23 2051.8,444.298C2052.46,442.7 2053.38,441.588 2054.5,441.234C2057.55,440.264 2080.03,418.66 2081.42,415.349C2082.67,412.372 2087.9,407.261 2093.56,403.402C2095.33,402.192 2097.88,399.339 2098.89,397.432C2099.9,395.525 2101.61,393.692 2103.13,392.919C2106.83,391.033 2110.85,386.946 2110.85,385.359C2110.85,384.649 2116.22,379.095 2123.1,372.28C2132.69,362.771 2135.85,358.682 2135.85,356.694C2135.85,353.656 2116.33,332.976 2112.21,331.684C2110.86,331.261 2108.77,330.01 2107.22,328.711C2105.66,327.411 2103.4,326.149 2102.86,326.149C2102.32,326.149 2096.9,320.883 2090.1,314.145C2074.93,299.135 2072.78,297.459 2068.98,296.624C2066.96,296.18 2062.63,292.471 2055,284.906C2045.89,275.868 2042.45,273.253 2039.48,272.696C2036.76,272.187 2034.46,270.509 2029.65,265.786C2019.26,255.574 2018.43,255.149 2015.57,255.149C2013.53,255.149 2011.87,253.769 2007.15,248.907C2002.04,243.645 1999.63,242.149 1997.11,242.149C1994.62,242.149 1993.4,241.192 1988.69,236.403C1985.44,233.103 1981.3,230.149 1980.22,230.149C1978.23,230.149 1973.08,226.491 1968.6,222.102C1967.22,220.755 1963.91,219.16 1961.82,218.843C1958.88,218.398 1957.3,217.254 1953.21,212.967C1948.86,208.401 1946.71,207.149 1943.97,207.149C1941.52,207.149 1940.43,206.553 1938.14,204.161C1932.36,198.135 1927.84,195.149 1924.97,195.149C1922.96,195.149 1922.2,194.63 1920.69,192.507C1919.02,190.159 1917.11,189.149 1914.39,189.149C1911.52,189.149 1910.51,188.421 1905.85,183.872C1901.65,179.763 1898.76,177.964 1895.91,177.508C1893.26,177.084 1892.01,176.361 1890.6,174.375C1888.97,172.092 1887.1,171.149 1884.12,171.149C1881.12,171.149 1880.62,170.898 1878.84,168.494C1877.12,166.166 1875.17,165.149 1872.48,165.149C1869.89,165.149 1868.97,164.675 1866.98,162.434C1865.02,160.238 1862.78,159.149 1860.34,159.149C1857.91,159.149 1856.93,158.631 1854.98,156.434C1853.02,154.238 1850.78,153.149 1848.34,153.149C1845.91,153.149 1844.93,152.631 1842.98,150.434C1841.02,148.238 1838.78,147.149 1836.34,147.149C1833.91,147.149 1832.93,146.631 1830.98,144.434C1829.02,142.238 1826.78,141.149 1824.34,141.149C1821.91,141.149 1820.93,140.631 1818.98,138.434C1817.07,136.294 1814.76,135.149 1812.5,135.149C1810.24,135.149 1809.2,134.574 1807.29,132.434C1805.34,130.238 1803.09,129.149 1800.66,129.149C1798.22,129.149 1797.25,128.631 1795.29,126.434C1793.34,124.238 1791.09,123.149 1788.66,123.149C1786.22,123.149 1785.25,122.631 1783.29,120.434C1780.86,117.704 1779.42,117.149 1773.71,117.149C1768,117.149 1767.85,117.173 1765.45,114.439C1763.51,112.221 1761.3,111.149 1758.81,111.149C1756.32,111.149 1755.4,110.657 1753.45,108.439C1751.29,105.979 1749.4,105.146 1745.84,105.131C1742.7,105.118 1740.77,104.439 1737.58,102.278C1734.7,100.325 1731.45,99.1493 1729.07,99.1493C1726.29,99.1493 1725.47,98.7369 1723.45,96.4389C1721.03,93.6827 1719.65,93.1493 1713.67,93.1493C1707.78,93.1493 1707.67,93.2492 1705.91,90.8322C1704.32,88.6415 1702.29,87.6926 1697.27,87.1005C1692.84,86.5787 1690.75,85.8526 1688.5,83.9614C1686.11,81.9509 1683.76,81.1493 1680.12,81.1493C1676.64,81.1493 1674.99,80.652 1672.51,78.8155C1669.66,76.7181 1667.5,76.1493 1661.72,76.1493C1655.3,76.1493 1655.27,76.2278 1652.83,73.4389C1650.42,70.6953 1649.01,70.1493 1643.19,70.1493C1637.36,70.1493 1637.23,70.1826 1634.83,67.4389C1632.44,64.7184 1630.98,64.1493 1625.43,64.1493C1618.54,64.1493 1614.19,62.9897 1611.45,60.2483C1610.01,58.808 1607.48,58.1493 1602.14,58.1493C1596.02,58.1493 1595.4,58.0092 1592.03,55.334C1588.52,52.5458 1587.14,52.1493 1579.44,52.1493C1571.86,52.1493 1571.42,52.1156 1568.44,49.5994C1565.47,47.1011 1563.75,46.6041 1554.61,46.1447C1545.59,45.6914 1544.64,45.5282 1541.42,43.0682C1537.92,40.3977 1536.96,40.1493 1524.19,40.1493L1511.06,41L1508.84,38L1506.62,35L1493.76,35C1481.02,35 1481.29,34.2269 1478.76,31.5015L1475.81,29.5L1457.01,29C1437.4,28.5012 1435.84,27.6564 1432.07,24.279C1430.27,22.6728 1426.78,22.2408 1402.94,21.9611L1376.38,22.5L1373.11,19.75L1369.85,17L1274.56,17L1179.28,17L1175.5,20L1171.72,23L1145.4,23L1119.07,23L1115.65,26L1112.24,29L1094.31,29L1076.37,29L1073.5,32L1070.63,35L1057.45,35C1044.73,35 1043.66,34.3968 1039.9,37.0262C1036.43,39.4594 1035.32,39.6525 1025.79,40.1234C1015.63,40.6254 1014.4,41.1052 1012.34,43.725C1010.2,46.4529 1010.76,46.1493 998.829,46.1493L986.802,47L983.149,50C980.419,52.9233 980.956,52.1493 971.764,52.1493C962.543,52.1493 961.635,52.5017 959.022,55.4341C956.545,58.2143 956.484,58.1493 950.147,58.1493C944.586,58.1493 942.342,58.8015 940.874,60.4236C938.515,63.0309 933.937,64.1368 926.472,64.1438C921.03,64.1488 919.55,64.7303 917.174,67.4389C914.734,70.219 914.683,70.1493 908.394,70.1493C902.682,70.1493 900.518,70.7203 897.301,72.9493C894.799,74.6832 892.077,75.6199 888.652,75.9418C885.15,76.2709 882.021,77.4073 880.128,78.9872C877.984,80.7772 876.636,81.1493 872.833,81.1493C868.514,81.1493 866.815,81.8546 864.548,84.4389C862.14,87.1826 862.01,87.1493 856.187,87.1493C850.364,87.1493 848.955,87.6953 846.548,90.4389C844.14,93.1826 844.01,93.1493 838.187,93.1493C832.364,93.1493 830.955,93.6953 828.548,96.4389C826.513,98.7576 825.714,99.1493 822.854,99.1493C820.323,99.1493 817.624,100.175 815.501,101.961C813.254,103.853 811.158,104.579 806.732,105.101C801.711,105.693 799.684,106.642 798.088,108.832C796.628,110.837 795.97,111.149 793.36,111.149C790.828,111.149 788.537,112.196 786.573,114.288C784.388,116.617 783.308,117.002 778.533,117.465C774.076,117.898 771.495,118.889 769.472,120.827C767.594,122.627 766.296,123.149 763.703,123.149C760.866,123.149 758.763,124.126 756.707,126.434C754.75,128.631 753.778,129.149 751.342,129.149C748.906,129.149 746.664,130.238 744.707,132.434C742.8,134.574 741.761,135.149 739.5,135.149C737.239,135.149 734.929,136.294 733.022,138.434C731.065,140.631 730.094,141.149 727.658,141.149C725.222,141.149 722.98,142.238 721.022,144.434C719.065,146.631 718.094,147.149 715.658,147.149C713.222,147.149 710.98,148.238 709.022,150.434C707.065,152.631 706.094,153.149 703.658,153.149C701.222,153.149 698.98,154.238 697.022,156.434C695.065,158.631 694.094,159.149 691.658,159.149C689.222,159.149 686.98,160.238 685.022,162.434C683.026,164.675 682.109,165.149 679.522,165.149C676.835,165.149 674.879,166.166 673.158,168.494C671.38,170.898 670.88,171.149 667.88,171.149C664.862,171.149 663.029,172.088 661.307,174.507C659.689,176.778 659.081,177.149 656.639,177.149C654.049,177.149 651.605,178.572 646.65,183.39C641.515,188.384 640.492,189.149 637.605,189.149C634.892,189.149 632.978,190.16 631.307,192.507C629.612,194.887 629.122,195.149 626.269,195.149C623.172,195.149 621.27,196.247 616.382,201.416C611.494,206.584 610.828,207.149 607.731,207.149C604.878,207.149 603.002,208.126 601.307,210.507C600.132,212.157 599.397,213.149 598.826,213.149C598.256,213.149 595.904,214.474 594.27,215.849C592.636,217.224 590.937,218.149 589.824,218.149C588.712,218.149 585.957,219.729 584.462,221.33C582.967,222.93 580.459,224.775 578.571,225.661C572.068,228.712 567.464,232.017 562.488,237.207C558.499,241.368 557.468,242.149 554.893,242.149C552.253,242.149 550.028,243.503 545.341,248.459C541.002,253.047 539.236,254.388 536.483,254.835C533.66,255.293 530.532,257.496 523.985,263.955C518.481,269.386 514.745,272.37 512.471,272.998C508.455,274.107 507.463,274.825 495.079,287.02C488.938,293.066 485.177,296.151 483.116,296.604C479.214,297.461 477.125,299.08 461.905,314.145C455.098,320.883 449.719,326.149 449.219,326.149C448.719,326.149 446.88,327.312 445.903,328.392C444.927,329.471 442.87,330.652 440.888,331.306C435.756,333 416.149,353.143 416.149,356.666C416.149,358.654 420.432,363.861 434.399,377.821C444.299,387.716 452.149,395.64 452.149,396.165C452.149,397.632 462.754,408.779 465.645,410.274C468.538,411.77 518.149,460.858 518.149,462.241C518.149,463.322 525.953,470.851 527.078,470.851C528.338,470.851 547.278,490.615 548.739,493.408C550.541,496.854 561.526,506.851 563.42,506.851C564.267,506.851 565.063,508.074 566.116,510.137C568.319,514.454 571.291,517.284 574.519,518.268C575.767,518.649 577.195,520.334 578.321,522.542C579.446,524.747 582.095,527.662 583.779,528.579C587.528,530.621 641.937,584.896 643.751,588.404C645.183,591.172 656.362,601.851 657.754,601.851C658.94,601.851 709.149,651.947 709.149,653.129C709.149,654.337 715.774,660.851 717.005,660.851C718.355,660.851 734.914,678.107 739.348,684.011C744.195,690.464 750.63,696.409 753.596,697.302C754.935,697.705 755.99,698.938 756.781,700.832C758.217,704.269 762.496,708.28 765.842,709.342C766.906,709.68 768.196,711.336 769.321,713.542C770.446,715.747 773.098,718.662 774.785,719.58C776.472,720.497 784.408,727.786 792.389,735.761L807.28,749.5L813.741,749.184ZM1274.8,361.649C1264.12,361.649 1265.36,363.288 1265.29,341.589L1264.38,323.289L1262.04,318.473C1260.29,315.824 1258.85,313.12 1258.85,312.463C1258.85,311.807 1257.66,309.468 1256.44,307.908C1255.21,306.349 1253.27,303.171 1252.02,300.669C1250.77,298.166 1248.4,293.821 1246.8,291.071C1245.19,288.321 1242.72,283.854 1241.27,281.104C1239.83,278.354 1236.97,273.06 1235.13,269.614L1231.2,263.97L1234.18,262.485C1236.75,260.682 1249.32,261.212 1253.03,262.904C1254.53,263.587 1255.9,265.5 1257.15,268.409C1258.29,271.056 1259.97,273.865 1260.48,274.177C1260.98,274.489 1261.83,276.448 1262.79,279.054C1263.75,281.661 1265.46,284.954 1266.41,286.054C1267.35,287.154 1268.28,288.86 1268.67,290.235C1270.06,295.046 1272.91,297.851 1276,297.851C1279.09,297.851 1281.94,295.046 1283.33,290.235C1283.72,288.86 1284.66,287.162 1285.63,286.062C1286.6,284.962 1288.09,282.1 1288.74,280.072C1289.39,278.044 1290.6,275.607 1291.59,274.335C1292.58,273.063 1294.14,270.056 1294.89,267.941C1295.72,265.629 1296.94,264.003 1298.58,263.159C1302.31,261.23 1315.58,261.319 1318.36,263.267L1320.74,263.929L1316.94,269.714C1315.32,272.896 1312.79,277.321 1311.19,280.071C1309.58,282.821 1307.08,287.358 1305.66,290.108C1304.23,292.858 1301.34,297.99 1299.21,301.565C1297.09,305.14 1294.41,310.042 1293.31,312.369C1292.21,314.697 1290.37,317.854 1289.11,319.56C1286.95,322.478 1286.64,324.148 1286.49,339.826C1286.4,348.992 1286.29,357.529 1286.24,358.826C1286.18,360.319 1286.21,360.447 1284.4,360.984C1282.58,361.521 1279.78,361.649 1274.8,361.649Z" fill-rule="evenodd" fill="#EFECEB"/>
<path d="M2009.44,710.181C2011.75,710.051 2014.92,707.822 2021.54,701.187C2026.25,696.469 2030.38,692.36 2030.77,692.014C2030.97,691.84 2031.08,692.711 2032.9,694.225C2034.71,695.739 2037.07,697.872 2039.63,700.343C2045.07,705.598 2048.53,708.634 2050.86,709.764C2053.18,710.894 2055.55,710.11 2057.3,708.358C2059.03,706.625 2059.62,703.891 2058.31,701.244C2057,698.597 2053.58,694.678 2048.37,689.382L2039.76,681.78L2049.55,672.64C2055.11,666.961 2058.1,663.899 2059.33,661.448C2060.57,658.997 2059.77,656.533 2057.93,654.829C2055.96,653.004 2053.8,652.064 2051.59,653.157C2049.38,654.25 2045.96,657.386 2039.99,663.137C2035.28,667.675 2031.43,671.149 2030.72,671.149C2030,671.149 2026.32,667.614 2021.8,662.981C2017.19,658.264 2013.7,655.284 2011.18,654.085C2008.66,652.886 2005.89,653.462 2004.18,655.176C2002.51,656.846 2001.93,659.543 2003.12,662.022C2004.3,664.502 2007.24,667.969 2011.94,672.64C2016.59,677.271 2020.15,681.151 2020.15,682C2020.15,682.849 2016.59,686.734 2011.93,691.369C2007.04,696.232 2004.02,699.679 2002.78,702.047C2001.53,704.415 2002.12,706.954 2003.73,708.33C2004.91,709.336 2007.79,710.274 2009.44,710.181Z" fill-rule="evenodd" fill="#9A9796"/>
<path d="M1277.2,363.351C1281.75,363.351 1285.98,362.622 1286.67,361.931C1287.47,361.134 1288.14,354.263 1288.23,341.654C1288.37,324.064 1288.32,323.486 1290.49,320.555C1291.74,318.858 1293.75,315.422 1294.85,313.095C1295.95,310.767 1298.55,306.01 1300.68,302.435C1302.8,298.86 1305.74,293.642 1307.17,290.892C1308.59,288.142 1311.05,283.679 1312.66,280.929C1314.26,278.179 1316.76,273.504 1318.38,270.322L1320.74,263.929L1319.5,262.464C1316.71,260.516 1301.53,259.719 1297.8,261.648C1296.16,262.492 1294.12,265.055 1293.29,267.367C1292.53,269.482 1291.23,272.018 1290.24,273.29C1289.25,274.562 1287.77,277.525 1287.12,279.553C1286.47,281.581 1285.32,283.838 1284.35,284.938C1283.38,286.038 1282.09,288.39 1281.69,289.765C1280.31,294.576 1279.09,296.149 1276,296.149C1272.91,296.149 1271.69,294.576 1270.31,289.765C1269.91,288.39 1268.64,286.046 1267.7,284.946C1266.75,283.846 1265.35,281.073 1264.39,278.466C1263.43,275.86 1261.88,273.042 1261.37,272.73C1260.87,272.418 1259.86,270.384 1258.72,267.737C1257.47,264.828 1255.24,262.039 1253.74,261.356C1250.03,259.664 1235.62,259.879 1233.04,261.682L1231.2,263.97L1233.7,270.235C1235.54,273.681 1238.32,279.146 1239.76,281.896C1241.21,284.646 1243.72,289.179 1245.33,291.929C1246.94,294.679 1249.25,298.928 1250.5,301.43C1251.75,303.932 1253.87,307.401 1255.1,308.96C1256.33,310.52 1257.15,311.807 1257.15,312.463C1257.15,313.12 1258.95,316.544 1260.74,319.243L1264.5,323.471L1263.44,339.332C1263.13,363.246 1263.57,363.351 1277.2,363.351Z" fill-rule="evenodd" fill="#363D3D"/>
</g>
</svg>
