<svg id="Layer_1" height="512" viewBox="0 0 100 100" width="512" xmlns="http://www.w3.org/2000/svg"><path d="m44.94 55.32h4.08c.71 0 1.29.68 1.29 1.52 0 .83.67 1.5 1.5 1.5s1.5-.67 1.5-1.5c0-2.49-1.93-4.52-4.29-4.52h-4.08c-2.37 0-4.29 2.03-4.29 4.52v2.07c0 2.38 1.76 4.32 3.98 4.49.1.02.2.03.31.03h4.08c.71 0 1.29.68 1.29 1.52v2.08c0 .84-.58 1.52-1.29 1.52h-4.08c-.71 0-1.29-.68-1.29-1.52 0-.83-.67-1.5-1.5-1.5s-1.5.67-1.5 1.5c0 2.49 1.93 4.52 4.29 4.52h4.08c2.37 0 4.29-2.03 4.29-4.52v-2.08c0-2.38-1.76-4.31-3.98-4.49-.1-.02-.2-.03-.31-.03h-4.08c-.71 0-1.29-.68-1.29-1.52v-2.07c0-.84.58-1.52 1.29-1.52z"/><path d="m64.22 52.32h-4.64c-.83 0-1.5.67-1.5 1.5v16.22c0 .83.67 1.5 1.5 1.5h4.64c3.59 0 6.52-2.92 6.52-6.52v-6.19c-.01-3.59-2.93-6.51-6.52-6.51zm3.51 12.7c0 1.94-1.58 3.52-3.52 3.52h-3.14v-13.22h3.14c1.94 0 3.52 1.58 3.52 3.52z"/><path d="m11.22 72.57c-.28.28-.44.66-.44 1.06v16.99c0 3.44 2.8 6.25 6.25 6.25h65.95c3.44 0 6.25-2.8 6.25-6.25v-81.23c0-3.44-2.8-6.25-6.25-6.25h-55.9c-3.37 0-6.11 2.74-6.11 6.12v24.13l-9.75 9.75c-.28.28-.44.66-.44 1.06v9.87c0 .83.67 1.5 1.5 1.5h8.69v7.26zm11.25-20.01h-8.69v-7.75l9.75-9.75c.28-.28.44-.66.44-1.06v-24.74c0-1.72 1.4-3.12 3.11-3.12h55.9c1.79 0 3.25 1.46 3.25 3.25v81.23c0 1.79-1.46 3.25-3.25 3.25h-65.96c-1.79 0-3.25-1.46-3.25-3.25v-16.37l9.75-9.75c.28-.28.44-.66.44-1.06v-9.38c.01-.83-.67-1.5-1.49-1.5z"/><path d="m31.84 32.33h4.73c1.39 0 2.51-1.13 2.51-2.51v-16.9c0-1.39-1.13-2.51-2.51-2.51h-4.73c-1.39 0-2.51 1.13-2.51 2.51v16.9c0 1.38 1.13 2.51 2.51 2.51zm.49-18.93h3.76v15.93h-3.76z"/><path d="m45.82 32.33h4.73c1.39 0 2.51-1.13 2.51-2.51v-16.9c0-1.39-1.13-2.51-2.51-2.51h-4.73c-1.39 0-2.51 1.13-2.51 2.51v16.9c-.01 1.38 1.12 2.51 2.51 2.51zm.48-18.93h3.76v15.93h-3.76z"/><path d="m59.79 32.33h4.73c1.39 0 2.51-1.13 2.51-2.51v-16.9c0-1.39-1.13-2.51-2.51-2.51h-4.73c-1.39 0-2.51 1.13-2.51 2.51v16.9c-.01 1.38 1.12 2.51 2.51 2.51zm.48-18.93h3.76v15.93h-3.76z"/><path d="m73.76 32.33h4.73c1.39 0 2.51-1.13 2.51-2.51v-16.9c0-1.39-1.13-2.51-2.51-2.51h-4.73c-1.39 0-2.51 1.13-2.51 2.51v16.9c0 1.38 1.12 2.51 2.51 2.51zm.49-18.93h3.76v15.93h-3.76z"/><path d="m30.83 83.8h48.67c.83 0 1.5-.67 1.5-1.5v-38.79c0-.83-.67-1.5-1.5-1.5h-48.67c-.83 0-1.5.67-1.5 1.5v38.79c0 .82.67 1.5 1.5 1.5zm1.5-38.79h45.67v35.79h-45.67z"/></svg>