<svg id="Teamwork" enable-background="new 0 0 64 64" height="512" viewBox="0 0 64 64" width="512" xmlns="http://www.w3.org/2000/svg"><path d="m29.351 39h-15.351c-.553 0-1-.448-1-1s.447-1 1-1h15.351c.553 0 1 .448 1 1s-.448 1-1 1z"/><path d="m29.351 27h-15.351c-.553 0-1-.448-1-1s.447-1 1-1h15.351c.553 0 1 .448 1 1s-.448 1-1 1z"/><path d="m28 33h-20c-.553 0-1-.448-1-1s.447-1 1-1h20c.553 0 1 .448 1 1s-.447 1-1 1z"/><path d="m38 35.902c-1.987 0-4-1.34-4-3.902s2.013-3.902 4-3.902 4 1.34 4 3.902-2.013 3.902-4 3.902zm0-5.804c-.923 0-2 .498-2 1.902s1.077 1.902 2 1.902 2-.498 2-1.902-1.077-1.902-2-1.902z"/><path d="m40.121 30.879c-.256 0-.512-.098-.707-.293-.391-.391-.391-1.023 0-1.414l5.657-5.657c.391-.391 1.023-.391 1.414 0s.391 1.023 0 1.414l-5.657 5.657c-.195.195-.451.293-.707.293z"/><path d="m34.465 36.536c-.256 0-.512-.098-.707-.293-.391-.39-.391-1.023 0-1.414l1.414-1.415c.391-.391 1.023-.391 1.414 0 .391.39.391 1.023 0 1.414l-1.414 1.415c-.195.195-.451.293-.707.293z"/><path d="m38 51c-.553 0-1-.448-1-1v-3c0-.552.447-1 1-1s1 .448 1 1v3c0 .552-.447 1-1 1z"/><path d="m50.728 45.728c-.256 0-.512-.098-.707-.293l-2.121-2.122c-.391-.391-.391-1.024 0-1.414.391-.391 1.023-.391 1.414 0l2.121 2.122c.391.391.391 1.024 0 1.414-.196.195-.452.293-.707.293z"/><path d="m48.606 22.394c-.256 0-.512-.098-.707-.293-.391-.39-.391-1.023 0-1.414l2.121-2.122c.391-.391 1.023-.391 1.414 0 .391.39.391 1.023 0 1.414l-2.121 2.122c-.195.195-.451.293-.707.293z"/><path d="m38 18c-.553 0-1-.448-1-1v-3c0-.552.447-1 1-1s1 .448 1 1v3c0 .552-.447 1-1 1z"/><path d="m56 33h-3c-.553 0-1-.448-1-1s.447-1 1-1h3c.553 0 1 .448 1 1s-.447 1-1 1z"/><path d="m30.789 21h-10.789c-.553 0-1-.448-1-1s.447-1 1-1h10.789c.553 0 1 .448 1 1s-.447 1-1 1z"/><path d="m30.789 45h-10.789c-.553 0-1-.448-1-1s.447-1 1-1h10.789c.553 0 1 .448 1 1s-.447 1-1 1z"/><path d="m37.938 50.981c-2.931 0-5.892-.675-8.642-2.092-.491-.253-.684-.856-.431-1.347s.857-.684 1.347-.431c7.844 4.042 17.615 1.334 22.245-6.165 4.643-7.521 2.7-17.48-4.423-22.673-5.159-3.76-12.155-4.304-17.822-1.385-.49.253-1.094.061-1.347-.431-.253-.491-.061-1.094.431-1.347 6.333-3.264 14.149-2.657 19.916 1.546 7.962 5.804 10.135 16.935 4.946 25.34-3.551 5.754-9.81 8.985-16.22 8.985z"/></svg>