<svg id="layer_1" enable-background="new 0 0 200 200" viewBox="0 0 200 200" xmlns="http://www.w3.org/2000/svg"><g fill="rgb(0,0,0)"><path d="m61.3366 198.7365c-3.8893 0-7.7945-1.0847-11.3086-3.2781-32.6418-20.3714-44.9485-46.703-49.5247-65.2053-6.1066-30.8373 44.9333-36.4535 67.8505-35.056 1.761-6.9634 6.1301-13.08 12.1249-17.0214-9.0714-12.1387-21.2458-19.7867-36.2543-22.7586-19.3391-3.2847-23.4263-31.1087-5.8545-39.8477 33.3392-19.0024 97.1952-22.5083 96.3704 10.811-.6835 19.2868-6.9715 37.8308-18.7038 55.1859 5.1612 4.9953 8.292 11.7803 8.6884 19.0147 15.0429-1.7888 27.7494-8.5077 37.8247-20.0165 6.0052-6.8593 15.3868-9.1156 23.9022-5.7478 8.5361 3.3773 13.8491 11.4631 13.535 20.6005-1.3216 38.4536-17.9721 62.2774-31.708 75.4917-23.6412 20.7064-54.0319-20.679-64.2755-41.2153-6.816 1.9769-14.557 1.2532-20.8202-1.9875-5.969 13.9198-6.5027 28.2804-1.574 42.7574 5.0949 13.3396-6.2694 28.6219-20.2725 28.273zm-1.6188-94.5681c-14.1176.1632-54.2272 5.0317-50.2069 23.856 4.1646 16.8367 15.4261 40.8368 45.43 59.562 5.3197 3.3207 10.6838 1.7539 13.9293-.8201 3.2305-2.5623 5.9658-7.4048 3.9546-13.3126-6.3202-18.5652-4.873-36.9425 4.3011-54.6216.6379-1.2292 1.7915-2.1091 3.1458-2.3995 1.3551-.2882 2.7674.0404 3.8526.8993 3.4512 2.733 7.6019 4.1775 12.0037 4.1775 4.9261.8516 11.3607-5.6527 14.5071.4457 6.0281 15.2396 35.1102 56.5264 51.2108 42.2675 12.4987-12.025 27.6526-33.7782 28.8673-69.1245.0159-11.6249-13.2308-16.8886-21.1812-8.4221-12.9177 14.7553-29.5546 22.6907-49.4492 23.5865-1.3715.0602-2.7195-.4957-3.6482-1.5215-1.8205-1.8024-.9363-4.3611-.9455-6.5928-.0001-6.3459-3.1223-12.2987-8.3528-15.9233-1.0257-.7109-1.7221-1.8051-1.931-3.0357-.2093-1.2306.0861-2.4938.8196-3.5037 10.2153-12.9246 31.3669-58.5212 11.0023-65.4878-16.6655-4.8123-43.08-7.0587-74.2968 9.5628-10.0753 5.7972-8.0115 19.9044 3.2961 22.5543 19.2372 3.809 34.4279 14.2491 45.1507 31.0306 1.5812 2.3482.4574 5.827-2.1953 6.8094-6.7913 2.7009-11.5582 9.1434-12.144 16.4131-.1006 1.2455-.6991 2.3982-1.6611 3.1966-4.5407 2.4665-10.5485-.3007-15.459.4039z"/><path d="m96.1279 112.2302c-7.607 1.0321-15.4151-13.051-5.4426-14.7224 2.5623.0007 4.6397 2.0781 4.6397 4.6403 0 .4354.3675.8028.8029.8028 6.0654.0249 6.0675 9.2545 0 9.2793z"/><path d="m9.2329 99.228c-12.7712-.764 4.8333-40.6245 9.5289-46.5697 3.292-5.0803 11.0691-.1194 7.8098 5.0118-7.1818 11.1897-11.5808 24.0937-12.7217 37.3166-.2085 2.4172-2.2352 4.2413-4.617 4.2413z"/><path d="m39.2577 89.6348c-11.0543-1.6919 1.3997-18.9153 4.3572-24.1282 3.4934-4.9529 11.064.3241 7.6063 5.3167-3.325 4.7567-5.8564 9.9749-7.5229 15.5084-.6044 2.0077-2.4471 3.3031-4.4406 3.3031z"/><path d="m96.2071 193.9939c-3.6525.2417-8.8695-.1084-8.6734-4.9527.12-2.5591 2.2921-4.5182 4.8525-4.4162 13.2881.6302 26.6579-2.0181 38.6783-7.6414 5.4914-2.5456 9.4266 5.808 3.9316 8.4049-12.0948 5.6586-25.4224 8.6054-38.789 8.6054z"/><path d="m96.194 166.1857c-3.9048.076-10.1254.1951-9.7645-5.2634.2215-2.5524 2.4715-4.439 5.0229-4.2215 5.7823.502 11.5673.0847 17.1924-1.2392 2.4947-.584 4.9917.9597 5.5789 3.4539.8588 8.4162-12.5193 6.4771-18.0297 7.2702z"/><path d="m173.5515 66.6619c-1.6806 0-3.3021-.9157-4.1263-2.512-6.0995-11.8142-15.0751-22.0758-25.9565-29.6754-4.9499-3.4817.3164-11.067 5.3132-7.6072 6.2137 3.1209 41.191 37.1803 24.7696 39.7946z"/><path d="m149.9162 81.597c-1.7462 0-3.4186-.99-4.2065-2.6759-2.4571-5.2576-5.7103-10.0585-9.6698-14.27-4.1842-4.3187 2.6992-10.8071 6.7603-6.3556 3.7145 4.588 19.1197 21.1144 7.116 23.3015z"/></g></svg>