<?xml version="1.0"?>
<svg xmlns="http://www.w3.org/2000/svg" viewBox="0 0 48 48" width="512" height="512"><g id="Water"><path d="M24,46A16.0183,16.0183,0,0,1,8,30C8,16.0942,22.708,2.8125,23.3345,2.2539a.9983.9983,0,0,1,1.331,0C25.292,2.8125,40,16.0942,40,30A16.0183,16.0183,0,0,1,24,46ZM24,4.3721C21.1333,7.1372,10,18.6118,10,30a14,14,0,0,0,28,0C38,18.6118,26.8667,7.1372,24,4.3721Z"/><path d="M18.4976,40.5273a.9946.9946,0,0,1-.5-.1342A12.0449,12.0449,0,0,1,12,30a1,1,0,0,1,2,0,10.0373,10.0373,0,0,0,5,8.6616,1,1,0,0,1-.5019,1.8657Z"/></g></svg>
